<?xml version="1.0" encoding="UTF-8" standalone="no"?>
<!DOCTYPE svg PUBLIC "-//W3C//DTD SVG 1.1//EN"
 "http://www.w3.org/Graphics/SVG/1.1/DTD/svg11.dtd">
<!-- Generated by graphviz version 2.38.0 (20140413.2041)
 -->
<!-- Title: Control&#45;flow graph for function &#39;moon_phase()&#39;. Pages: 1 -->
<svg width="637pt" height="472pt"
 viewBox="0.00 0.00 637.00 472.00" xmlns="http://www.w3.org/2000/svg" xmlns:xlink="http://www.w3.org/1999/xlink">
<g id="graph0" class="graph" transform="scale(1 1) rotate(0) translate(4 468)">
<title>Control&#45;flow graph for function &#39;moon_phase()&#39;.</title>
<polygon fill="white" stroke="none" points="-4,4 -4,-468 633,-468 633,4 -4,4"/>
<text text-anchor="middle" x="314.5" y="-7.8" font-family="Times,serif" font-size="14.00">Control&#45;flow graph for function &#39;moon_phase()&#39;.</text>
<!-- Node0x23cf620 -->
<g id="node1" class="node"><title>Node0x23cf620</title>
<polygon fill="none" stroke="black" points="285,-427.5 285,-463.5 344,-463.5 344,-427.5 285,-427.5"/>
<text text-anchor="start" x="293" y="-441.8" font-family="Times,serif" font-size="14.00">entry:</text>
</g>
<!-- Node0x23c0ed0 -->
<g id="node2" class="node"><title>Node0x23c0ed0</title>
<polygon fill="none" stroke="black" points="0,-261.5 0,-389.5 629,-389.5 629,-261.5 0,-261.5"/>
<text text-anchor="start" x="8" y="-374.3" font-family="Times,serif" font-size="14.00">time_val = time(NULL)</text>
<text text-anchor="start" x="8" y="-359.3" font-family="Times,serif" font-size="14.00"> time_info = PtrToIntCastExpr&lt;int32&gt;(localtime(&amp;(time_val)))</text>
<text text-anchor="start" x="8" y="-344.3" font-family="Times,serif" font-size="14.00"> v1</text>
<text text-anchor="start" x="8" y="-329.3" font-family="Times,serif" font-size="14.00"> v2 = &amp;(v1)</text>
<text text-anchor="start" x="8" y="-314.3" font-family="Times,serif" font-size="14.00"> v1 = *(IntToPtrCastExpr&lt;ptr&gt;((time_info + 16)))</text>
<text text-anchor="start" x="8" y="-299.3" font-family="Times,serif" font-size="14.00"> *(IntToPtrCastExpr&lt;ptr&gt;((v2 + 16))) = *(IntToPtrCastExpr&lt;ptr&gt;((time_info + 32)))</text>
<text text-anchor="start" x="8" y="-284.3" font-family="Times,serif" font-size="14.00"> *(IntToPtrCastExpr&lt;ptr&gt;((v2 + 20))) = *(IntToPtrCastExpr&lt;ptr&gt;((time_info + 36)))</text>
<text text-anchor="start" x="8" y="-269.3" font-family="Times,serif" font-size="14.00"> *(IntToPtrCastExpr&lt;ptr&gt;((v2 + 24))) = *(IntToPtrCastExpr&lt;ptr&gt;((time_info + 40)))</text>
</g>
<!-- Node0x23cf620&#45;&gt;Node0x23c0ed0 -->
<g id="edge1" class="edge"><title>Node0x23cf620&#45;&gt;Node0x23c0ed0</title>
<path fill="none" stroke="black" d="M314.5,-427.342C314.5,-419.719 314.5,-410.177 314.5,-400.023"/>
<polygon fill="black" stroke="black" points="318,-399.713 314.5,-389.713 311,-399.713 318,-399.713"/>
</g>
<!-- Node0x249b940 -->
<g id="node3" class="node"><title>Node0x249b940</title>
<polygon fill="none" stroke="black" points="262,-187.5 262,-223.5 367,-223.5 367,-187.5 262,-187.5"/>
<text text-anchor="start" x="270" y="-201.8" font-family="Times,serif" font-size="14.00">if (v1 &lt;= 1):</text>
</g>
<!-- Node0x23c0ed0&#45;&gt;Node0x249b940 -->
<g id="edge2" class="edge"><title>Node0x23c0ed0&#45;&gt;Node0x249b940</title>
<path fill="none" stroke="black" d="M314.5,-261.355C314.5,-251.753 314.5,-242.299 314.5,-234.016"/>
<polygon fill="black" stroke="black" points="318,-233.887 314.5,-223.888 311,-233.888 318,-233.887"/>
</g>
<!-- Node0x2497920 -->
<g id="node4" class="node"><title>Node0x2497920</title>
<polygon fill="none" stroke="black" points="133.5,-97.5 133.5,-135.5 495.5,-135.5 495.5,-97.5 133.5,-97.5"/>
<text text-anchor="start" x="141.5" y="-120.3" font-family="Times,serif" font-size="14.00">0x10618:</text>
<text text-anchor="start" x="141.5" y="-105.3" font-family="Times,serif" font-size="14.00"> return (FPToIntCastExpr&lt;int32&gt;(0.0e+0) % 8)</text>
</g>
<!-- Node0x249b940&#45;&gt;Node0x2497920 -->
<g id="edge3" class="edge"><title>Node0x249b940&#45;&gt;Node0x2497920</title>
<path fill="none" stroke="black" d="M292.424,-187.338C283.278,-178.03 275.777,-165.999 280.5,-154 281.957,-150.298 283.986,-146.75 286.335,-143.418"/>
<polygon fill="black" stroke="black" points="289.084,-145.586 292.688,-135.623 283.657,-141.163 289.084,-145.586"/>
<text text-anchor="middle" x="304.5" y="-157.8" font-family="Times,serif" font-size="14.00">v1 &gt; 1</text>
</g>
<!-- Node0x249b940&#45;&gt;Node0x2497920 -->
<g id="edge4" class="edge"><title>Node0x249b940&#45;&gt;Node0x2497920</title>
<path fill="none" stroke="black" d="M322.827,-187.194C325.141,-181.53 327.337,-175.118 328.5,-169 329.968,-161.279 328.925,-153.02 326.875,-145.427"/>
<polygon fill="black" stroke="black" points="330.196,-144.321 323.727,-135.931 323.552,-146.525 330.196,-144.321"/>
<text text-anchor="middle" x="358.5" y="-157.8" font-family="Times,serif" font-size="14.00">v1 &lt;= 1</text>
</g>
<!-- Node0x23e9aa0 -->
<g id="node5" class="node"><title>Node0x23e9aa0</title>
<polygon fill="none" stroke="black" points="287.5,-23.5 287.5,-59.5 341.5,-59.5 341.5,-23.5 287.5,-23.5"/>
<text text-anchor="start" x="295.5" y="-37.8" font-family="Times,serif" font-size="14.00">exit:</text>
</g>
<!-- Node0x2497920&#45;&gt;Node0x23e9aa0 -->
<g id="edge5" class="edge"><title>Node0x2497920&#45;&gt;Node0x23e9aa0</title>
<path fill="none" stroke="black" d="M314.5,-97.4551C314.5,-89.2008 314.5,-79.2377 314.5,-70.0742"/>
<polygon fill="black" stroke="black" points="318,-69.8347 314.5,-59.8347 311,-69.8347 318,-69.8347"/>
</g>
</g>
</svg>
