<?xml version="1.0" encoding="UTF-8" standalone="no"?>
<!DOCTYPE svg PUBLIC "-//W3C//DTD SVG 1.1//EN"
 "http://www.w3.org/Graphics/SVG/1.1/DTD/svg11.dtd">
<!-- Generated by graphviz version 2.38.0 (20140413.2041)
 -->
<!-- Title: Call graph of the module. Pages: 1 -->
<svg width="1231pt" height="214pt"
 viewBox="0.00 0.00 1230.50 214.00" xmlns="http://www.w3.org/2000/svg" xmlns:xlink="http://www.w3.org/1999/xlink">
<g id="graph0" class="graph" transform="scale(1 1) rotate(0) translate(4 210)">
<title>Call graph of the module.</title>
<polygon fill="white" stroke="none" points="-4,4 -4,-210 1226.5,-210 1226.5,4 -4,4"/>
<text text-anchor="middle" x="611.25" y="-7.8" font-family="Times,serif" font-size="14.00">Call graph of the module.</text>
<!-- Node_moon_phase -->
<g id="node1" class="node"><title>Node_moon_phase</title>
<polygon fill="none" stroke="black" points="73,-96.5 73,-132.5 178,-132.5 178,-96.5 73,-96.5"/>
<text text-anchor="middle" x="125.5" y="-110.8" font-family="Times,serif" font-size="14.00">moon_phase</text>
</g>
<!-- Node_localtime -->
<g id="node14" class="node"><title>Node_localtime</title>
<polygon fill="none" stroke="#7f7f7f" points="0,-23.5 0,-59.5 83,-59.5 83,-23.5 0,-23.5"/>
<text text-anchor="middle" x="41.5" y="-37.8" font-family="Times,serif" font-size="14.00" fill="#7f7f7f">localtime</text>
</g>
<!-- Node_moon_phase&#45;&gt;Node_localtime -->
<g id="edge1" class="edge"><title>Node_moon_phase&#45;&gt;Node_localtime</title>
<path fill="none" stroke="black" d="M105.166,-96.3129C94.4353,-87.243 81.1064,-75.9769 69.4215,-66.1004"/>
<polygon fill="black" stroke="black" points="71.5435,-63.3112 61.6468,-59.5288 67.0248,-68.6573 71.5435,-63.3112"/>
</g>
<!-- Node_time -->
<g id="node15" class="node"><title>Node_time</title>
<polygon fill="none" stroke="#7f7f7f" points="101.5,-23.5 101.5,-59.5 155.5,-59.5 155.5,-23.5 101.5,-23.5"/>
<text text-anchor="middle" x="128.5" y="-37.8" font-family="Times,serif" font-size="14.00" fill="#7f7f7f">time</text>
</g>
<!-- Node_moon_phase&#45;&gt;Node_time -->
<g id="edge2" class="edge"><title>Node_moon_phase&#45;&gt;Node_time</title>
<path fill="none" stroke="black" d="M126.226,-96.3129C126.565,-88.2895 126.977,-78.5475 127.356,-69.5691"/>
<polygon fill="black" stroke="black" points="130.855,-69.6677 127.78,-59.5288 123.861,-69.3721 130.855,-69.6677"/>
</g>
<!-- Node_main -->
<g id="node2" class="node"><title>Node_main</title>
<polygon fill="none" stroke="black" points="567.5,-169.5 567.5,-205.5 621.5,-205.5 621.5,-169.5 567.5,-169.5"/>
<text text-anchor="middle" x="594.5" y="-183.8" font-family="Times,serif" font-size="14.00">main</text>
</g>
<!-- Node_main&#45;&gt;Node_moon_phase -->
<g id="edge3" class="edge"><title>Node_main&#45;&gt;Node_moon_phase</title>
<path fill="none" stroke="black" d="M567.124,-184.277C502.724,-178.757 336.547,-162.819 188.325,-132.994"/>
<polygon fill="black" stroke="black" points="188.636,-129.485 178.138,-130.916 187.237,-136.344 188.636,-129.485"/>
</g>
<!-- Node_getline -->
<g id="node4" class="node"><title>Node_getline</title>
<polygon fill="none" stroke="#7f7f7f" points="196.5,-96.5 196.5,-132.5 262.5,-132.5 262.5,-96.5 196.5,-96.5"/>
<text text-anchor="middle" x="229.5" y="-110.8" font-family="Times,serif" font-size="14.00" fill="#7f7f7f">getline</text>
</g>
<!-- Node_main&#45;&gt;Node_getline -->
<g id="edge4" class="edge"><title>Node_main&#45;&gt;Node_getline</title>
<path fill="none" stroke="black" d="M567.235,-184.125C512.624,-178.918 386.026,-164.575 272.603,-132.965"/>
<polygon fill="black" stroke="black" points="273.298,-129.523 262.722,-130.156 271.384,-136.257 273.298,-129.523"/>
</g>
<!-- Node_scanf -->
<g id="node5" class="node"><title>Node_scanf</title>
<polygon fill="none" stroke="#7f7f7f" points="281,-96.5 281,-132.5 336,-132.5 336,-96.5 281,-96.5"/>
<text text-anchor="middle" x="308.5" y="-110.8" font-family="Times,serif" font-size="14.00" fill="#7f7f7f">scanf</text>
</g>
<!-- Node_main&#45;&gt;Node_scanf -->
<g id="edge5" class="edge"><title>Node_main&#45;&gt;Node_scanf</title>
<path fill="none" stroke="black" d="M567.37,-182.187C521.884,-174.595 427.64,-157.312 350.5,-133 348.894,-132.494 347.265,-131.951 345.627,-131.38"/>
<polygon fill="black" stroke="black" points="346.848,-128.1 336.255,-127.881 344.399,-134.658 346.848,-128.1"/>
</g>
<!-- Node_fflush -->
<g id="node7" class="node"><title>Node_fflush</title>
<polygon fill="none" stroke="#7f7f7f" points="176,-23.5 176,-59.5 233,-59.5 233,-23.5 176,-23.5"/>
<text text-anchor="middle" x="204.5" y="-37.8" font-family="Times,serif" font-size="14.00" fill="#7f7f7f">fflush</text>
</g>
<!-- Node_main&#45;&gt;Node_fflush -->
<g id="edge6" class="edge"><title>Node_main&#45;&gt;Node_fflush</title>
<path fill="none" stroke="black" d="M567.245,-184.034C525.417,-179.305 443.903,-166.289 383.5,-133 362.575,-121.468 364.879,-108.472 344.5,-96 303.495,-70.9055 287.047,-78.0739 242.5,-60 242.403,-59.9607 242.306,-59.9214 242.209,-59.8819"/>
<polygon fill="black" stroke="black" points="243.583,-56.6626 233.01,-55.9722 240.844,-63.1049 243.583,-56.6626"/>
</g>
<!-- Node_puts -->
<g id="node9" class="node"><title>Node_puts</title>
<polygon fill="none" stroke="#7f7f7f" points="639.5,-23.5 639.5,-59.5 693.5,-59.5 693.5,-23.5 639.5,-23.5"/>
<text text-anchor="middle" x="666.5" y="-37.8" font-family="Times,serif" font-size="14.00" fill="#7f7f7f">puts</text>
</g>
<!-- Node_main&#45;&gt;Node_puts -->
<g id="edge7" class="edge"><title>Node_main&#45;&gt;Node_puts</title>
<path fill="none" stroke="black" d="M567.294,-176.391C548.743,-167.899 525.601,-153.779 514.5,-133 506.751,-118.496 504.746,-109.24 514.5,-96 544.767,-54.916 576.614,-77.0809 629.737,-59.739"/>
<polygon fill="black" stroke="black" points="630.969,-63.0153 639.175,-56.3127 628.58,-56.4355 630.969,-63.0153"/>
</g>
<!-- Node_strlen -->
<g id="node12" class="node"><title>Node_strlen</title>
<polygon fill="none" stroke="#7f7f7f" points="523,-96.5 523,-132.5 582,-132.5 582,-96.5 523,-96.5"/>
<text text-anchor="middle" x="552.5" y="-110.8" font-family="Times,serif" font-size="14.00" fill="#7f7f7f">strlen</text>
</g>
<!-- Node_main&#45;&gt;Node_strlen -->
<g id="edge8" class="edge"><title>Node_main&#45;&gt;Node_strlen</title>
<path fill="none" stroke="black" d="M584.333,-169.313C579.38,-160.941 573.321,-150.697 567.823,-141.403"/>
<polygon fill="black" stroke="black" points="570.677,-139.354 562.573,-132.529 564.652,-142.918 570.677,-139.354"/>
</g>
<!-- Node_memset -->
<g id="node13" class="node"><title>Node_memset</title>
<polygon fill="none" stroke="#7f7f7f" points="600.5,-96.5 600.5,-132.5 674.5,-132.5 674.5,-96.5 600.5,-96.5"/>
<text text-anchor="middle" x="637.5" y="-110.8" font-family="Times,serif" font-size="14.00" fill="#7f7f7f">memset</text>
</g>
<!-- Node_main&#45;&gt;Node_memset -->
<g id="edge9" class="edge"><title>Node_main&#45;&gt;Node_memset</title>
<path fill="none" stroke="black" d="M604.909,-169.313C610.032,-160.853 616.313,-150.484 621.988,-141.112"/>
<polygon fill="black" stroke="black" points="625,-142.896 627.187,-132.529 619.013,-139.269 625,-142.896"/>
</g>
<!-- Node_syslog -->
<g id="node16" class="node"><title>Node_syslog</title>
<polygon fill="none" stroke="#7f7f7f" points="692.5,-96.5 692.5,-132.5 754.5,-132.5 754.5,-96.5 692.5,-96.5"/>
<text text-anchor="middle" x="723.5" y="-110.8" font-family="Times,serif" font-size="14.00" fill="#7f7f7f">syslog</text>
</g>
<!-- Node_main&#45;&gt;Node_syslog -->
<g id="edge10" class="edge"><title>Node_main&#45;&gt;Node_syslog</title>
<path fill="none" stroke="black" d="M621.543,-171.616C639.482,-161.743 663.337,-148.613 683.462,-137.536"/>
<polygon fill="black" stroke="black" points="685.338,-140.499 692.411,-132.611 681.963,-134.366 685.338,-140.499"/>
</g>
<!-- Node_openlog -->
<g id="node17" class="node"><title>Node_openlog</title>
<polygon fill="none" stroke="#7f7f7f" points="773,-96.5 773,-132.5 846,-132.5 846,-96.5 773,-96.5"/>
<text text-anchor="middle" x="809.5" y="-110.8" font-family="Times,serif" font-size="14.00" fill="#7f7f7f">openlog</text>
</g>
<!-- Node_main&#45;&gt;Node_openlog -->
<g id="edge11" class="edge"><title>Node_main&#45;&gt;Node_openlog</title>
<path fill="none" stroke="black" d="M621.584,-178.446C653.259,-168.914 707.455,-152.256 763.22,-133.002"/>
<polygon fill="black" stroke="black" points="764.613,-136.223 772.911,-129.635 762.316,-129.611 764.613,-136.223"/>
</g>
<!-- Node_closelog -->
<g id="node18" class="node"><title>Node_closelog</title>
<polygon fill="none" stroke="#7f7f7f" points="864,-96.5 864,-132.5 939,-132.5 939,-96.5 864,-96.5"/>
<text text-anchor="middle" x="901.5" y="-110.8" font-family="Times,serif" font-size="14.00" fill="#7f7f7f">closelog</text>
</g>
<!-- Node_main&#45;&gt;Node_closelog -->
<g id="edge12" class="edge"><title>Node_main&#45;&gt;Node_closelog</title>
<path fill="none" stroke="black" d="M621.525,-182.438C667.619,-175.196 764.43,-158.619 854,-133.222"/>
<polygon fill="black" stroke="black" points="855.119,-136.542 863.76,-130.411 853.182,-129.816 855.119,-136.542"/>
</g>
<!-- Node_setlogmask -->
<g id="node19" class="node"><title>Node_setlogmask</title>
<polygon fill="none" stroke="#7f7f7f" points="956.5,-96.5 956.5,-132.5 1054.5,-132.5 1054.5,-96.5 956.5,-96.5"/>
<text text-anchor="middle" x="1005.5" y="-110.8" font-family="Times,serif" font-size="14.00" fill="#7f7f7f">setlogmask</text>
</g>
<!-- Node_main&#45;&gt;Node_setlogmask -->
<g id="edge13" class="edge"><title>Node_main&#45;&gt;Node_setlogmask</title>
<path fill="none" stroke="black" d="M621.848,-183.762C680.106,-177.634 820.813,-161.259 946.693,-133.26"/>
<polygon fill="black" stroke="black" points="947.514,-136.662 956.499,-131.048 945.974,-129.834 947.514,-136.662"/>
</g>
<!-- Node_printf -->
<g id="node20" class="node"><title>Node_printf</title>
<polygon fill="none" stroke="#7f7f7f" points="1073,-96.5 1073,-132.5 1130,-132.5 1130,-96.5 1073,-96.5"/>
<text text-anchor="middle" x="1101.5" y="-110.8" font-family="Times,serif" font-size="14.00" fill="#7f7f7f">printf</text>
</g>
<!-- Node_main&#45;&gt;Node_printf -->
<g id="edge14" class="edge"><title>Node_main&#45;&gt;Node_printf</title>
<path fill="none" stroke="black" d="M621.513,-186.39C692.963,-185.48 892.531,-178.92 1063.17,-132.531"/>
<polygon fill="black" stroke="black" points="1064.11,-135.901 1072.81,-129.857 1062.24,-129.155 1064.11,-135.901"/>
</g>
<!-- Node_snprintf -->
<g id="node21" class="node"><title>Node_snprintf</title>
<polygon fill="none" stroke="#7f7f7f" points="1148.5,-96.5 1148.5,-132.5 1222.5,-132.5 1222.5,-96.5 1148.5,-96.5"/>
<text text-anchor="middle" x="1185.5" y="-110.8" font-family="Times,serif" font-size="14.00" fill="#7f7f7f">snprintf</text>
</g>
<!-- Node_main&#45;&gt;Node_snprintf -->
<g id="edge15" class="edge"><title>Node_main&#45;&gt;Node_snprintf</title>
<path fill="none" stroke="black" d="M621.566,-186.367C700.467,-185.453 936.887,-178.973 1138.48,-132.876"/>
<polygon fill="black" stroke="black" points="1139.41,-136.254 1148.35,-130.579 1137.82,-129.436 1139.41,-136.254"/>
</g>
<!-- Node_get_flag -->
<g id="node22" class="node"><title>Node_get_flag</title>
<polygon fill="none" stroke="black" points="392.5,-96.5 392.5,-132.5 466.5,-132.5 466.5,-96.5 392.5,-96.5"/>
<text text-anchor="middle" x="429.5" y="-110.8" font-family="Times,serif" font-size="14.00">get_flag</text>
</g>
<!-- Node_main&#45;&gt;Node_get_flag -->
<g id="edge16" class="edge"><title>Node_main&#45;&gt;Node_get_flag</title>
<path fill="none" stroke="black" d="M567.254,-174.776C542.475,-164.114 505.391,-148.156 475.939,-135.483"/>
<polygon fill="black" stroke="black" points="477.24,-132.232 466.671,-131.495 474.473,-138.662 477.24,-132.232"/>
</g>
<!-- Node_exit -->
<g id="node3" class="node"><title>Node_exit</title>
<polygon fill="none" stroke="#7f7f7f" points="251.5,-23.5 251.5,-59.5 305.5,-59.5 305.5,-23.5 251.5,-23.5"/>
<text text-anchor="middle" x="278.5" y="-37.8" font-family="Times,serif" font-size="14.00" fill="#7f7f7f">exit</text>
</g>
<!-- Node_fclose -->
<g id="node6" class="node"><title>Node_fclose</title>
<polygon fill="none" stroke="#7f7f7f" points="324,-23.5 324,-59.5 383,-59.5 383,-23.5 324,-23.5"/>
<text text-anchor="middle" x="353.5" y="-37.8" font-family="Times,serif" font-size="14.00" fill="#7f7f7f">fclose</text>
</g>
<!-- Node_fopen -->
<g id="node8" class="node"><title>Node_fopen</title>
<polygon fill="none" stroke="#7f7f7f" points="401.5,-23.5 401.5,-59.5 457.5,-59.5 457.5,-23.5 401.5,-23.5"/>
<text text-anchor="middle" x="429.5" y="-37.8" font-family="Times,serif" font-size="14.00" fill="#7f7f7f">fopen</text>
</g>
<!-- Node_putchar -->
<g id="node10" class="node"><title>Node_putchar</title>
<polygon fill="none" stroke="#7f7f7f" points="476,-23.5 476,-59.5 549,-59.5 549,-23.5 476,-23.5"/>
<text text-anchor="middle" x="512.5" y="-37.8" font-family="Times,serif" font-size="14.00" fill="#7f7f7f">putchar</text>
</g>
<!-- Node_fgetc -->
<g id="node11" class="node"><title>Node_fgetc</title>
<polygon fill="none" stroke="#7f7f7f" points="567.5,-23.5 567.5,-59.5 621.5,-59.5 621.5,-23.5 567.5,-23.5"/>
<text text-anchor="middle" x="594.5" y="-37.8" font-family="Times,serif" font-size="14.00" fill="#7f7f7f">fgetc</text>
</g>
<!-- Node_get_flag&#45;&gt;Node_exit -->
<g id="edge17" class="edge"><title>Node_get_flag&#45;&gt;Node_exit</title>
<path fill="none" stroke="black" d="M392.394,-96.4325C371.855,-86.941 345.674,-74.7713 314.862,-60.1406"/>
<polygon fill="black" stroke="black" points="316.137,-56.8713 305.603,-55.7362 313.13,-63.1925 316.137,-56.8713"/>
</g>
<!-- Node_get_flag&#45;&gt;Node_fclose -->
<g id="edge18" class="edge"><title>Node_get_flag&#45;&gt;Node_fclose</title>
<path fill="none" stroke="black" d="M411.103,-96.3129C401.487,-87.3302 389.566,-76.1933 379.068,-66.3856"/>
<polygon fill="black" stroke="black" points="381.425,-63.7979 371.728,-59.5288 376.646,-68.9131 381.425,-63.7979"/>
</g>
<!-- Node_get_flag&#45;&gt;Node_fflush -->
<g id="edge19" class="edge"><title>Node_get_flag&#45;&gt;Node_fflush</title>
<path fill="none" stroke="black" d="M392.277,-100.382C387.653,-98.8551 382.979,-97.3593 378.5,-96 321.59,-78.7282 303.132,-80.8838 242.941,-59.8332"/>
<polygon fill="black" stroke="black" points="243.926,-56.4683 233.331,-56.4021 241.572,-63.0607 243.926,-56.4683"/>
</g>
<!-- Node_get_flag&#45;&gt;Node_fopen -->
<g id="edge20" class="edge"><title>Node_get_flag&#45;&gt;Node_fopen</title>
<path fill="none" stroke="black" d="M429.5,-96.3129C429.5,-88.2895 429.5,-78.5475 429.5,-69.5691"/>
<polygon fill="black" stroke="black" points="433,-69.5288 429.5,-59.5288 426,-69.5289 433,-69.5288"/>
</g>
<!-- Node_get_flag&#45;&gt;Node_puts -->
<g id="edge21" class="edge"><title>Node_get_flag&#45;&gt;Node_puts</title>
<path fill="none" stroke="black" d="M466.693,-100.281C471.322,-98.7713 476.006,-97.3072 480.5,-96 543.374,-77.7126 564.101,-82.6107 629.686,-59.8985"/>
<polygon fill="black" stroke="black" points="630.994,-63.1483 639.247,-56.5051 628.652,-56.5514 630.994,-63.1483"/>
</g>
<!-- Node_get_flag&#45;&gt;Node_putchar -->
<g id="edge22" class="edge"><title>Node_get_flag&#45;&gt;Node_putchar</title>
<path fill="none" stroke="black" d="M449.592,-96.3129C460.195,-87.243 473.365,-75.9769 484.911,-66.1004"/>
<polygon fill="black" stroke="black" points="487.269,-68.6889 492.593,-59.5288 482.719,-63.3696 487.269,-68.6889"/>
</g>
<!-- Node_get_flag&#45;&gt;Node_fgetc -->
<g id="edge23" class="edge"><title>Node_get_flag&#45;&gt;Node_fgetc</title>
<path fill="none" stroke="black" d="M466.728,-98.7422C490.607,-89.1229 522.427,-76.0238 558.26,-59.9973"/>
<polygon fill="black" stroke="black" points="559.771,-63.1554 567.454,-55.86 556.899,-56.7719 559.771,-63.1554"/>
</g>
</g>
</svg>
