<?xml version="1.0" encoding="UTF-8" standalone="no"?>
<!DOCTYPE svg PUBLIC "-//W3C//DTD SVG 1.1//EN"
 "http://www.w3.org/Graphics/SVG/1.1/DTD/svg11.dtd">
<!-- Generated by graphviz version 2.38.0 (20140413.2041)
 -->
<!-- Title: Control&#45;flow graph for function &#39;get_flag(a1)&#39;. Pages: 1 -->
<svg width="1937pt" height="1026pt"
 viewBox="0.00 0.00 1937.00 1026.00" xmlns="http://www.w3.org/2000/svg" xmlns:xlink="http://www.w3.org/1999/xlink">
<g id="graph0" class="graph" transform="scale(1 1) rotate(0) translate(4 1022)">
<title>Control&#45;flow graph for function &#39;get_flag(a1)&#39;.</title>
<polygon fill="white" stroke="none" points="-4,4 -4,-1022 1933,-1022 1933,4 -4,4"/>
<text text-anchor="middle" x="964.5" y="-7.8" font-family="Times,serif" font-size="14.00">Control&#45;flow graph for function &#39;get_flag(a1)&#39;.</text>
<!-- Node0x23875f0 -->
<g id="node1" class="node"><title>Node0x23875f0</title>
<polygon fill="none" stroke="black" points="538,-979.5 538,-1017.5 597,-1017.5 597,-979.5 538,-979.5"/>
<text text-anchor="start" x="546" y="-1002.3" font-family="Times,serif" font-size="14.00">entry:</text>
<text text-anchor="start" x="546" y="-987.3" font-family="Times,serif" font-size="14.00"> a1</text>
</g>
<!-- Node0x23f1820 -->
<g id="node2" class="node"><title>Node0x23f1820</title>
<polygon fill="none" stroke="black" points="409,-873.5 409,-941.5 726,-941.5 726,-873.5 409,-873.5"/>
<text text-anchor="start" x="417" y="-926.3" font-family="Times,serif" font-size="14.00">0x104d8:</text>
<text text-anchor="start" x="417" y="-911.3" font-family="Times,serif" font-size="14.00"> g3 = True</text>
<text text-anchor="start" x="417" y="-896.3" font-family="Times,serif" font-size="14.00"> file = fopen(&quot;/home/pwn150/flag.txt&quot;, &quot;r&quot;)</text>
<text text-anchor="start" x="417" y="-881.3" font-family="Times,serif" font-size="14.00"> stream</text>
</g>
<!-- Node0x23875f0&#45;&gt;Node0x23f1820 -->
<g id="edge1" class="edge"><title>Node0x23875f0&#45;&gt;Node0x23f1820</title>
<path fill="none" stroke="black" d="M567.5,-979.49C567.5,-971.422 567.5,-961.529 567.5,-951.718"/>
<polygon fill="black" stroke="black" points="571,-951.605 567.5,-941.605 564,-951.605 571,-951.605"/>
</g>
<!-- Node0x249d4c0 -->
<g id="node3" class="node"><title>Node0x249d4c0</title>
<polygon fill="none" stroke="black" points="495.5,-799.5 495.5,-835.5 639.5,-835.5 639.5,-799.5 495.5,-799.5"/>
<text text-anchor="start" x="503.5" y="-813.8" font-family="Times,serif" font-size="14.00">if (file == NULL):</text>
</g>
<!-- Node0x23f1820&#45;&gt;Node0x249d4c0 -->
<g id="edge2" class="edge"><title>Node0x23f1820&#45;&gt;Node0x249d4c0</title>
<path fill="none" stroke="black" d="M567.5,-873.482C567.5,-864.328 567.5,-854.497 567.5,-845.715"/>
<polygon fill="black" stroke="black" points="571,-845.64 567.5,-835.64 564,-845.64 571,-845.64"/>
</g>
<!-- Node0x2468360 -->
<g id="node4" class="node"><title>Node0x2468360</title>
<polygon fill="none" stroke="black" points="0,-594.5 0,-692.5 853,-692.5 853,-594.5 0,-594.5"/>
<text text-anchor="start" x="8" y="-677.3" font-family="Times,serif" font-size="14.00">0x10544:</text>
<text text-anchor="start" x="8" y="-662.3" font-family="Times,serif" font-size="14.00"> puts(&quot;Have a nice day!&quot;)</text>
<text text-anchor="start" x="8" y="-647.3" font-family="Times,serif" font-size="14.00"> stream = (IntToPtrCastExpr&lt;ptr&gt;((PtrToIntCastExpr&lt;int32&gt;(&amp;(g1)) + 24)) if g3 else IntToPtrCastExpr&lt;ptr&gt;(24))</text>
<text text-anchor="start" x="8" y="-632.3" font-family="Times,serif" font-size="14.00"> fflush(IntToPtrCastExpr&lt;ptr&gt;(*(IntToPtrCastExpr&lt;ptr&gt;(*(stream)))))</text>
<text text-anchor="start" x="8" y="-617.3" font-family="Times,serif" font-size="14.00"> exit(0)</text>
<text text-anchor="start" x="8" y="-602.3" font-family="Times,serif" font-size="14.00"> # UNREACHABLE</text>
</g>
<!-- Node0x249d4c0&#45;&gt;Node0x2468360 -->
<g id="edge3" class="edge"><title>Node0x249d4c0&#45;&gt;Node0x2468360</title>
<path fill="none" stroke="black" d="M553.465,-799.379C534.764,-776.566 500.765,-735.092 472.653,-700.8"/>
<polygon fill="black" stroke="black" points="475.063,-698.219 466.017,-692.705 469.65,-702.657 475.063,-698.219"/>
<text text-anchor="middle" x="587" y="-769.8" font-family="Times,serif" font-size="14.00">file == NULL</text>
</g>
<!-- Node0x2493220 -->
<g id="node5" class="node"><title>Node0x2493220</title>
<polygon fill="none" stroke="black" points="771,-711.5 771,-747.5 886,-747.5 886,-711.5 771,-711.5"/>
<text text-anchor="start" x="779" y="-725.8" font-family="Times,serif" font-size="14.00">c = fgetc(file)</text>
</g>
<!-- Node0x249d4c0&#45;&gt;Node0x2493220 -->
<g id="edge4" class="edge"><title>Node0x249d4c0&#45;&gt;Node0x2493220</title>
<path fill="none" stroke="black" d="M619.377,-799.406C661.897,-785.396 722.17,-765.536 767.093,-750.734"/>
<polygon fill="black" stroke="black" points="768.319,-754.015 776.721,-747.561 766.128,-747.367 768.319,-754.015"/>
<text text-anchor="middle" x="761" y="-769.8" font-family="Times,serif" font-size="14.00">file != NULL</text>
</g>
<!-- Node0x248c670 -->
<g id="node6" class="node"><title>Node0x248c670</title>
<polygon fill="none" stroke="black" points="841.5,-23.5 841.5,-59.5 895.5,-59.5 895.5,-23.5 841.5,-23.5"/>
<text text-anchor="start" x="849.5" y="-37.8" font-family="Times,serif" font-size="14.00">exit:</text>
</g>
<!-- Node0x2468360&#45;&gt;Node0x248c670 -->
<g id="edge5" class="edge"><title>Node0x2468360&#45;&gt;Node0x248c670</title>
<path fill="none" stroke="black" d="M426.5,-594.482C426.5,-570.462 426.5,-540.944 426.5,-514.5 426.5,-514.5 426.5,-514.5 426.5,-153 426.5,-69.9329 724.031,-48.7887 830.871,-43.8739"/>
<polygon fill="black" stroke="black" points="831.347,-47.3565 841.184,-43.4231 831.041,-40.3632 831.347,-47.3565"/>
</g>
<!-- Node0x249b9d0 -->
<g id="node7" class="node"><title>Node0x249b9d0</title>
<polygon fill="none" stroke="black" points="818,-539.5 818,-575.5 919,-575.5 919,-539.5 818,-539.5"/>
<text text-anchor="start" x="826" y="-553.8" font-family="Times,serif" font-size="14.00">if (c == &#45;1):</text>
</g>
<!-- Node0x2493220&#45;&gt;Node0x249b9d0 -->
<g id="edge6" class="edge"><title>Node0x2493220&#45;&gt;Node0x249b9d0</title>
<path fill="none" stroke="black" d="M844,-711.17C848.079,-705.708 852.027,-699.415 854.5,-693 868.067,-657.804 870.119,-613.806 869.766,-585.92"/>
<polygon fill="black" stroke="black" points="873.26,-585.637 869.519,-575.724 866.262,-585.806 873.26,-585.637"/>
</g>
<!-- Node0x23e9b40 -->
<g id="node8" class="node"><title>Node0x23e9b40</title>
<polygon fill="none" stroke="black" points="442,-317.5 442,-430.5 1295,-430.5 1295,-317.5 442,-317.5"/>
<text text-anchor="start" x="450" y="-415.3" font-family="Times,serif" font-size="14.00">0x1053c:</text>
<text text-anchor="start" x="450" y="-400.3" font-family="Times,serif" font-size="14.00"> fclose(file)</text>
<text text-anchor="start" x="450" y="-385.3" font-family="Times,serif" font-size="14.00"> puts(&quot;Have a nice day!&quot;)</text>
<text text-anchor="start" x="450" y="-370.3" font-family="Times,serif" font-size="14.00"> stream = (IntToPtrCastExpr&lt;ptr&gt;((PtrToIntCastExpr&lt;int32&gt;(&amp;(g1)) + 24)) if g3 else IntToPtrCastExpr&lt;ptr&gt;(24))</text>
<text text-anchor="start" x="450" y="-355.3" font-family="Times,serif" font-size="14.00"> fflush(IntToPtrCastExpr&lt;ptr&gt;(*(IntToPtrCastExpr&lt;ptr&gt;(*(stream)))))</text>
<text text-anchor="start" x="450" y="-340.3" font-family="Times,serif" font-size="14.00"> exit(0)</text>
<text text-anchor="start" x="450" y="-325.3" font-family="Times,serif" font-size="14.00"> # UNREACHABLE</text>
</g>
<!-- Node0x249b9d0&#45;&gt;Node0x23e9b40 -->
<g id="edge7" class="edge"><title>Node0x249b9d0&#45;&gt;Node0x23e9b40</title>
<path fill="none" stroke="black" d="M868.5,-539.425C868.5,-517.016 868.5,-476.39 868.5,-441.129"/>
<polygon fill="black" stroke="black" points="872,-440.866 868.5,-430.866 865,-440.866 872,-440.866"/>
<text text-anchor="middle" x="896" y="-509.8" font-family="Times,serif" font-size="14.00">c == &#45;1</text>
</g>
<!-- Node0x23b8b10 -->
<g id="node9" class="node"><title>Node0x23b8b10</title>
<polygon fill="none" stroke="black" points="1071.5,-449.5 1071.5,-487.5 1199.5,-487.5 1199.5,-449.5 1071.5,-449.5"/>
<text text-anchor="start" x="1079.5" y="-472.3" font-family="Times,serif" font-size="14.00">putchar(c)</text>
<text text-anchor="start" x="1079.5" y="-457.3" font-family="Times,serif" font-size="14.00"> c2 = fgetc(file)</text>
</g>
<!-- Node0x249b9d0&#45;&gt;Node0x23b8b10 -->
<g id="edge8" class="edge"><title>Node0x249b9d0&#45;&gt;Node0x23b8b10</title>
<path fill="none" stroke="black" d="M919.035,-540.034C961.942,-526.052 1023.79,-505.898 1070.4,-490.711"/>
<polygon fill="black" stroke="black" points="1071.68,-493.976 1080.11,-487.55 1069.51,-487.32 1071.68,-493.976"/>
<text text-anchor="middle" x="1042" y="-509.8" font-family="Times,serif" font-size="14.00">c != &#45;1</text>
</g>
<!-- Node0x23e9b40&#45;&gt;Node0x248c670 -->
<g id="edge9" class="edge"><title>Node0x23e9b40&#45;&gt;Node0x248c670</title>
<path fill="none" stroke="black" d="M868.5,-317.309C868.5,-245.712 868.5,-124.177 868.5,-69.9911"/>
<polygon fill="black" stroke="black" points="872,-69.7893 868.5,-59.7893 865,-69.7894 872,-69.7893"/>
</g>
<!-- Node0x2455cb0 -->
<g id="node10" class="node"><title>Node0x2455cb0</title>
<polygon fill="none" stroke="black" points="1211.5,-262.5 1211.5,-298.5 1343.5,-298.5 1343.5,-262.5 1211.5,-262.5"/>
<text text-anchor="start" x="1219.5" y="-276.8" font-family="Times,serif" font-size="14.00">while (c2 != &#45;1):</text>
</g>
<!-- Node0x23b8b10&#45;&gt;Node0x2455cb0 -->
<g id="edge10" class="edge"><title>Node0x23b8b10&#45;&gt;Node0x2455cb0</title>
<path fill="none" stroke="black" d="M1199.58,-461.116C1239,-455.715 1284.25,-446.34 1296.5,-431 1328.12,-391.41 1308.82,-366.145 1296.5,-317 1295.74,-313.978 1294.67,-310.933 1293.42,-307.964"/>
<polygon fill="black" stroke="black" points="1296.51,-306.31 1288.98,-298.861 1290.22,-309.382 1296.51,-306.31"/>
</g>
<!-- Node0x23e9c60 -->
<g id="node11" class="node"><title>Node0x23e9c60</title>
<polygon fill="none" stroke="black" points="929.5,-127.5 929.5,-180.5 1057.5,-180.5 1057.5,-127.5 929.5,-127.5"/>
<text text-anchor="start" x="937.5" y="-165.3" font-family="Times,serif" font-size="14.00">0x1051c:</text>
<text text-anchor="start" x="937.5" y="-150.3" font-family="Times,serif" font-size="14.00"> putchar(c2)</text>
<text text-anchor="start" x="937.5" y="-135.3" font-family="Times,serif" font-size="14.00"> c2 = fgetc(file)</text>
</g>
<!-- Node0x2455cb0&#45;&gt;Node0x23e9c60 -->
<g id="edge11" class="edge"><title>Node0x2455cb0&#45;&gt;Node0x23e9c60</title>
<path fill="none" stroke="black" d="M1211.38,-264C1168.86,-252.585 1113.21,-234.89 1067.5,-211 1054.75,-204.335 1041.88,-195.503 1030.54,-186.829"/>
<polygon fill="black" stroke="black" points="1032.6,-183.996 1022.57,-180.573 1028.28,-189.502 1032.6,-183.996"/>
<text text-anchor="middle" x="1174.5" y="-232.8" font-family="Times,serif" font-size="14.00">c2 != &#45;1</text>
</g>
<!-- Node0x2473320 -->
<g id="node12" class="node"><title>Node0x2473320</title>
<polygon fill="none" stroke="black" points="1076,-97.5 1076,-210.5 1929,-210.5 1929,-97.5 1076,-97.5"/>
<text text-anchor="start" x="1084" y="-195.3" font-family="Times,serif" font-size="14.00">0x1053c:</text>
<text text-anchor="start" x="1084" y="-180.3" font-family="Times,serif" font-size="14.00"> fclose(file)</text>
<text text-anchor="start" x="1084" y="-165.3" font-family="Times,serif" font-size="14.00"> puts(&quot;Have a nice day!&quot;)</text>
<text text-anchor="start" x="1084" y="-150.3" font-family="Times,serif" font-size="14.00"> stream = (IntToPtrCastExpr&lt;ptr&gt;((PtrToIntCastExpr&lt;int32&gt;(&amp;(g1)) + 24)) if g3 else IntToPtrCastExpr&lt;ptr&gt;(24))</text>
<text text-anchor="start" x="1084" y="-135.3" font-family="Times,serif" font-size="14.00"> fflush(IntToPtrCastExpr&lt;ptr&gt;(*(IntToPtrCastExpr&lt;ptr&gt;(*(stream)))))</text>
<text text-anchor="start" x="1084" y="-120.3" font-family="Times,serif" font-size="14.00"> exit(0)</text>
<text text-anchor="start" x="1084" y="-105.3" font-family="Times,serif" font-size="14.00"> # UNREACHABLE</text>
</g>
<!-- Node0x2455cb0&#45;&gt;Node0x2473320 -->
<g id="edge12" class="edge"><title>Node0x2455cb0&#45;&gt;Node0x2473320</title>
<path fill="none" stroke="black" d="M1308.31,-262.45C1330.59,-250.123 1362.14,-232.666 1393.35,-215.398"/>
<polygon fill="black" stroke="black" points="1395.08,-218.442 1402.13,-210.538 1391.69,-212.317 1395.08,-218.442"/>
<text text-anchor="middle" x="1394.5" y="-232.8" font-family="Times,serif" font-size="14.00">c2 == &#45;1</text>
</g>
<!-- Node0x23e9c60&#45;&gt;Node0x2455cb0 -->
<g id="edge13" class="edge"><title>Node0x23e9c60&#45;&gt;Node0x2455cb0</title>
<path fill="none" stroke="black" d="M1020.17,-180.584C1033.38,-191.771 1050.2,-203.932 1067.5,-211 1125.57,-234.726 1149.16,-205.939 1207.5,-229 1223.24,-235.221 1238.71,-245.782 1251.1,-255.642"/>
<polygon fill="black" stroke="black" points="1249.2,-258.618 1259.14,-262.295 1253.66,-253.224 1249.2,-258.618"/>
</g>
<!-- Node0x2473320&#45;&gt;Node0x248c670 -->
<g id="edge14" class="edge"><title>Node0x2473320&#45;&gt;Node0x248c670</title>
<path fill="none" stroke="black" d="M1183.64,-97.4263C1072.4,-78.0383 961.468,-58.7035 905.634,-48.972"/>
<polygon fill="black" stroke="black" points="905.992,-45.4818 895.539,-47.2127 904.79,-52.3778 905.992,-45.4818"/>
</g>
</g>
</svg>
