<?xml version="1.0" encoding="UTF-8" standalone="no"?>
<!DOCTYPE svg PUBLIC "-//W3C//DTD SVG 1.1//EN"
 "http://www.w3.org/Graphics/SVG/1.1/DTD/svg11.dtd">
<!-- Generated by graphviz version 2.38.0 (20140413.2041)
 -->
<!-- Title: Control&#45;flow graph for function &#39;main(argc, **argv)&#39;. Pages: 1 -->
<svg width="1921pt" height="1752pt"
 viewBox="0.00 0.00 1920.50 1752.00" xmlns="http://www.w3.org/2000/svg" xmlns:xlink="http://www.w3.org/1999/xlink">
<g id="graph0" class="graph" transform="scale(1 1) rotate(0) translate(4 1748)">
<title>Control&#45;flow graph for function &#39;main(argc, **argv)&#39;.</title>
<polygon fill="white" stroke="none" points="-4,4 -4,-1748 1916.5,-1748 1916.5,4 -4,4"/>
<text text-anchor="middle" x="956.25" y="-7.8" font-family="Times,serif" font-size="14.00">Control&#45;flow graph for function &#39;main(argc, **argv)&#39;.</text>
<!-- Node0x24979d0 -->
<g id="node1" class="node"><title>Node0x24979d0</title>
<polygon fill="none" stroke="black" points="401.5,-1690.5 401.5,-1743.5 460.5,-1743.5 460.5,-1690.5 401.5,-1690.5"/>
<text text-anchor="start" x="409.5" y="-1728.3" font-family="Times,serif" font-size="14.00">entry:</text>
<text text-anchor="start" x="409.5" y="-1713.3" font-family="Times,serif" font-size="14.00"> argc</text>
<text text-anchor="start" x="409.5" y="-1698.3" font-family="Times,serif" font-size="14.00"> argv</text>
</g>
<!-- Node0x23ba1a0 -->
<g id="node2" class="node"><title>Node0x23ba1a0</title>
<polygon fill="none" stroke="black" points="0,-1314.5 0,-1652.5 862,-1652.5 862,-1314.5 0,-1314.5"/>
<text text-anchor="start" x="8" y="-1637.3" font-family="Times,serif" font-size="14.00">g3 = True</text>
<text text-anchor="start" x="8" y="-1622.3" font-family="Times,serif" font-size="14.00"> puts(&quot;Welcome to our secured moon phase tracking server.&quot;)</text>
<text text-anchor="start" x="8" y="-1607.3" font-family="Times,serif" font-size="14.00"> stream = (IntToPtrCastExpr&lt;ptr&gt;((PtrToIntCastExpr&lt;int32&gt;(&amp;(g1)) + 24)) if g3 else IntToPtrCastExpr&lt;ptr&gt;(24))</text>
<text text-anchor="start" x="8" y="-1592.3" font-family="Times,serif" font-size="14.00"> fflush(IntToPtrCastExpr&lt;ptr&gt;(*(IntToPtrCastExpr&lt;ptr&gt;(*(stream)))))</text>
<text text-anchor="start" x="8" y="-1577.3" font-family="Times,serif" font-size="14.00"> lineptr = 0</text>
<text text-anchor="start" x="8" y="-1562.3" font-family="Times,serif" font-size="14.00"> v1</text>
<text text-anchor="start" x="8" y="-1547.3" font-family="Times,serif" font-size="14.00"> memset(BitCastExpr&lt;ptr&gt;(&amp;(v1)), 0, 512)</text>
<text text-anchor="start" x="8" y="-1532.3" font-family="Times,serif" font-size="14.00"> v2 = 0</text>
<text text-anchor="start" x="8" y="-1517.3" font-family="Times,serif" font-size="14.00"> v3 = 0</text>
<text text-anchor="start" x="8" y="-1502.3" font-family="Times,serif" font-size="14.00"> n = 0</text>
<text text-anchor="start" x="8" y="-1487.3" font-family="Times,serif" font-size="14.00"> puts(&quot;What is your name?&quot;)</text>
<text text-anchor="start" x="8" y="-1472.3" font-family="Times,serif" font-size="14.00"> stream2 = (IntToPtrCastExpr&lt;ptr&gt;((PtrToIntCastExpr&lt;int32&gt;(&amp;(g1)) + 24)) if g3 else IntToPtrCastExpr&lt;ptr&gt;(24))</text>
<text text-anchor="start" x="8" y="-1457.3" font-family="Times,serif" font-size="14.00"> fflush(IntToPtrCastExpr&lt;ptr&gt;(*(IntToPtrCastExpr&lt;ptr&gt;(*(stream2)))))</text>
<text text-anchor="start" x="8" y="-1442.3" font-family="Times,serif" font-size="14.00"> v4 = (IntToPtrCastExpr&lt;ptr&gt;((PtrToIntCastExpr&lt;int32&gt;(&amp;(g1)) + 72)) if g3 else IntToPtrCastExpr&lt;ptr&gt;(72))</text>
<text text-anchor="start" x="8" y="-1427.3" font-family="Times,serif" font-size="14.00"> stream3 = *(IntToPtrCastExpr&lt;ptr&gt;(*(v4)))</text>
<text text-anchor="start" x="8" y="-1412.3" font-family="Times,serif" font-size="14.00"> getline(BitCastExpr&lt;ptr&gt;(&amp;(lineptr)), &amp;(n), IntToPtrCastExpr&lt;ptr&gt;(stream3))</text>
<text text-anchor="start" x="8" y="-1397.3" font-family="Times,serif" font-size="14.00"> str = lineptr</text>
<text text-anchor="start" x="8" y="-1382.3" font-family="Times,serif" font-size="14.00"> *(IntToPtrCastExpr&lt;ptr&gt;(((str &#45; 1) + strlen(IntToPtrCastExpr&lt;ptr&gt;(str))))) = 0</text>
<text text-anchor="start" x="8" y="-1367.3" font-family="Times,serif" font-size="14.00"> printf(&quot;Hello, %s!\n&quot;, IntToPtrCastExpr&lt;ptr&gt;(lineptr))</text>
<text text-anchor="start" x="8" y="-1352.3" font-family="Times,serif" font-size="14.00"> printf(&quot;Current moon phase: %d\n&quot;, moon_phase())</text>
<text text-anchor="start" x="8" y="-1337.3" font-family="Times,serif" font-size="14.00"> stream4 = (IntToPtrCastExpr&lt;ptr&gt;((PtrToIntCastExpr&lt;int32&gt;(&amp;(g1)) + 24)) if g3 else IntToPtrCastExpr&lt;ptr&gt;(24))</text>
<text text-anchor="start" x="8" y="-1322.3" font-family="Times,serif" font-size="14.00"> fflush(IntToPtrCastExpr&lt;ptr&gt;(*(IntToPtrCastExpr&lt;ptr&gt;(*(stream4)))))</text>
</g>
<!-- Node0x24979d0&#45;&gt;Node0x23ba1a0 -->
<g id="edge1" class="edge"><title>Node0x24979d0&#45;&gt;Node0x23ba1a0</title>
<path fill="none" stroke="black" d="M431,-1690.34C431,-1682.49 431,-1673.19 431,-1662.96"/>
<polygon fill="black" stroke="black" points="434.5,-1662.88 431,-1652.88 427.5,-1662.88 434.5,-1662.88"/>
</g>
<!-- Node0x2403590 -->
<g id="node3" class="node"><title>Node0x2403590</title>
<polygon fill="none" stroke="black" points="337.5,-1238.5 337.5,-1276.5 524.5,-1276.5 524.5,-1238.5 337.5,-1238.5"/>
<text text-anchor="start" x="345.5" y="-1261.3" font-family="Times,serif" font-size="14.00">if (moon_phase() == 7):</text>
<text text-anchor="start" x="345.5" y="-1246.3" font-family="Times,serif" font-size="14.00"> else:</text>
</g>
<!-- Node0x23ba1a0&#45;&gt;Node0x2403590 -->
<g id="edge2" class="edge"><title>Node0x23ba1a0&#45;&gt;Node0x2403590</title>
<path fill="none" stroke="black" d="M431,-1314.45C431,-1304.27 431,-1294.92 431,-1286.91"/>
<polygon fill="black" stroke="black" points="434.5,-1286.84 431,-1276.84 427.5,-1286.84 434.5,-1286.84"/>
</g>
<!-- Node0x23adea0 -->
<g id="node4" class="node"><title>Node0x23adea0</title>
<polygon fill="none" stroke="black" points="238,-1148.5 238,-1186.5 336,-1186.5 336,-1148.5 238,-1148.5"/>
<text text-anchor="start" x="246" y="-1171.3" font-family="Times,serif" font-size="14.00">0x108ec:</text>
<text text-anchor="start" x="246" y="-1156.3" font-family="Times,serif" font-size="14.00"> get_flag(7)</text>
</g>
<!-- Node0x2403590&#45;&gt;Node0x23adea0 -->
<g id="edge3" class="edge"><title>Node0x2403590&#45;&gt;Node0x23adea0</title>
<path fill="none" stroke="black" d="M401.512,-1238.48C379.623,-1225.1 349.568,-1206.74 325.741,-1192.17"/>
<polygon fill="black" stroke="black" points="327.301,-1189.03 316.943,-1186.8 323.651,-1195 327.301,-1189.03"/>
<text text-anchor="middle" x="439" y="-1208.8" font-family="Times,serif" font-size="14.00">moon_phase() == 7</text>
</g>
<!-- Node0x23adf80 -->
<g id="node5" class="node"><title>Node0x23adf80</title>
<polygon fill="none" stroke="black" points="354.5,-1148.5 354.5,-1186.5 799.5,-1186.5 799.5,-1148.5 354.5,-1148.5"/>
<text text-anchor="start" x="362.5" y="-1171.3" font-family="Times,serif" font-size="14.00">0x108f4:</text>
<text text-anchor="start" x="362.5" y="-1156.3" font-family="Times,serif" font-size="14.00"> puts(&quot;Sorry, current moon phase is bad for showing flags.&quot;)</text>
</g>
<!-- Node0x2403590&#45;&gt;Node0x23adf80 -->
<g id="edge4" class="edge"><title>Node0x2403590&#45;&gt;Node0x23adf80</title>
<path fill="none" stroke="black" d="M478.221,-1238.38C490.219,-1233.06 502.86,-1226.83 514,-1220 526.478,-1212.35 539.173,-1202.46 549.867,-1193.39"/>
<polygon fill="black" stroke="black" points="552.357,-1195.87 557.618,-1186.67 547.77,-1190.58 552.357,-1195.87"/>
<text text-anchor="middle" x="603" y="-1208.8" font-family="Times,serif" font-size="14.00">moon_phase() != 7</text>
</g>
<!-- Node0x23b8b90 -->
<g id="node6" class="node"><title>Node0x23b8b90</title>
<polygon fill="none" stroke="black" points="33,-997.5 33,-1110.5 895,-1110.5 895,-997.5 33,-997.5"/>
<text text-anchor="start" x="41" y="-1095.3" font-family="Times,serif" font-size="14.00">stream5 = (IntToPtrCastExpr&lt;ptr&gt;((PtrToIntCastExpr&lt;int32&gt;(&amp;(g1)) + 24)) if g3 else IntToPtrCastExpr&lt;ptr&gt;(24))</text>
<text text-anchor="start" x="41" y="-1080.3" font-family="Times,serif" font-size="14.00"> fflush(IntToPtrCastExpr&lt;ptr&gt;(*(IntToPtrCastExpr&lt;ptr&gt;(*(stream5)))))</text>
<text text-anchor="start" x="41" y="-1065.3" font-family="Times,serif" font-size="14.00"> printf(&quot;%s, do you want to leave us a feedback? Enter Y or N:&quot;, IntToPtrCastExpr&lt;ptr&gt;(lineptr))</text>
<text text-anchor="start" x="41" y="-1050.3" font-family="Times,serif" font-size="14.00"> stream6 = (IntToPtrCastExpr&lt;ptr&gt;((PtrToIntCastExpr&lt;int32&gt;(&amp;(g1)) + 24)) if g3 else IntToPtrCastExpr&lt;ptr&gt;(24))</text>
<text text-anchor="start" x="41" y="-1035.3" font-family="Times,serif" font-size="14.00"> fflush(IntToPtrCastExpr&lt;ptr&gt;(*(IntToPtrCastExpr&lt;ptr&gt;(*(stream6)))))</text>
<text text-anchor="start" x="41" y="-1020.3" font-family="Times,serif" font-size="14.00"> scanf(&quot;%c&quot;, &amp;(v2))</text>
<text text-anchor="start" x="41" y="-1005.3" font-family="Times,serif" font-size="14.00"> stream8</text>
</g>
<!-- Node0x23adea0&#45;&gt;Node0x23b8b90 -->
<g id="edge5" class="edge"><title>Node0x23adea0&#45;&gt;Node0x23b8b90</title>
<path fill="none" stroke="black" d="M315.832,-1148.34C330.188,-1139.29 348.466,-1127.78 367.244,-1115.95"/>
<polygon fill="black" stroke="black" points="369.298,-1118.79 375.894,-1110.5 365.567,-1112.87 369.298,-1118.79"/>
</g>
<!-- Node0x23adf80&#45;&gt;Node0x23b8b90 -->
<g id="edge6" class="edge"><title>Node0x23adf80&#45;&gt;Node0x23b8b90</title>
<path fill="none" stroke="black" d="M558.593,-1148.34C549.974,-1139.83 539.142,-1129.14 527.913,-1118.06"/>
<polygon fill="black" stroke="black" points="530.071,-1115.28 520.495,-1110.74 525.155,-1120.26 530.071,-1115.28"/>
</g>
<!-- Node0x249b210 -->
<g id="node7" class="node"><title>Node0x249b210</title>
<polygon fill="none" stroke="black" points="377,-923.5 377,-959.5 551,-959.5 551,-923.5 377,-923.5"/>
<text text-anchor="start" x="385" y="-937.8" font-family="Times,serif" font-size="14.00">if ((v2 % 256) == 89):</text>
</g>
<!-- Node0x23b8b90&#45;&gt;Node0x249b210 -->
<g id="edge7" class="edge"><title>Node0x23b8b90&#45;&gt;Node0x249b210</title>
<path fill="none" stroke="black" d="M464,-997.426C464,-987.86 464,-978.307 464,-969.913"/>
<polygon fill="black" stroke="black" points="467.5,-969.644 464,-959.644 460.5,-969.644 467.5,-969.644"/>
</g>
<!-- Node0x2486730 -->
<g id="node8" class="node"><title>Node0x2486730</title>
<polygon fill="none" stroke="black" points="476,-788.5 476,-871.5 1338,-871.5 1338,-788.5 476,-788.5"/>
<text text-anchor="start" x="484" y="-856.3" font-family="Times,serif" font-size="14.00">0x1096c:</text>
<text text-anchor="start" x="484" y="-841.3" font-family="Times,serif" font-size="14.00"> puts(&quot;Please, enter length of your message:&quot;)</text>
<text text-anchor="start" x="484" y="-826.3" font-family="Times,serif" font-size="14.00"> stream7 = (IntToPtrCastExpr&lt;ptr&gt;((PtrToIntCastExpr&lt;int32&gt;(&amp;(g1)) + 24)) if g3 else IntToPtrCastExpr&lt;ptr&gt;(24))</text>
<text text-anchor="start" x="484" y="-811.3" font-family="Times,serif" font-size="14.00"> fflush(IntToPtrCastExpr&lt;ptr&gt;(*(IntToPtrCastExpr&lt;ptr&gt;(*(stream7)))))</text>
<text text-anchor="start" x="484" y="-796.3" font-family="Times,serif" font-size="14.00"> v5</text>
</g>
<!-- Node0x249b210&#45;&gt;Node0x2486730 -->
<g id="edge8" class="edge"><title>Node0x249b210&#45;&gt;Node0x2486730</title>
<path fill="none" stroke="black" d="M533.219,-923.391C586.791,-910.149 663.397,-891.213 733.325,-873.929"/>
<polygon fill="black" stroke="black" points="734.277,-877.299 743.145,-871.502 732.597,-870.503 734.277,-877.299"/>
<text text-anchor="middle" x="723.5" y="-893.8" font-family="Times,serif" font-size="14.00">(v2 % 256) == 89</text>
</g>
<!-- Node0x2477950 -->
<g id="node9" class="node"><title>Node0x2477950</title>
<polygon fill="none" stroke="black" points="28,-413.5 28,-496.5 890,-496.5 890,-413.5 28,-413.5"/>
<text text-anchor="start" x="36" y="-481.3" font-family="Times,serif" font-size="14.00">0x10a9c:</text>
<text text-anchor="start" x="36" y="-466.3" font-family="Times,serif" font-size="14.00"> puts(&quot;Bye&#45;bye!&quot;)</text>
<text text-anchor="start" x="36" y="-451.3" font-family="Times,serif" font-size="14.00"> stream8 = (IntToPtrCastExpr&lt;ptr&gt;((PtrToIntCastExpr&lt;int32&gt;(&amp;(g1)) + 24)) if g3 else IntToPtrCastExpr&lt;ptr&gt;(24))</text>
<text text-anchor="start" x="36" y="-436.3" font-family="Times,serif" font-size="14.00"> fflush(IntToPtrCastExpr&lt;ptr&gt;(*(IntToPtrCastExpr&lt;ptr&gt;(*(stream8)))))</text>
<text text-anchor="start" x="36" y="-421.3" font-family="Times,serif" font-size="14.00"> return 0</text>
</g>
<!-- Node0x249b210&#45;&gt;Node0x2477950 -->
<g id="edge9" class="edge"><title>Node0x249b210&#45;&gt;Node0x2477950</title>
<path fill="none" stroke="black" d="M459.88,-923.167C455.139,-901.673 448,-863.853 448,-831 448,-831 448,-831 448,-552.5 448,-537.567 449.316,-521.416 451.039,-506.679"/>
<polygon fill="black" stroke="black" points="454.514,-507.091 452.284,-496.734 447.568,-506.221 454.514,-507.091"/>
<text text-anchor="middle" x="509.5" y="-684.8" font-family="Times,serif" font-size="14.00">(v2 % 256) != 89</text>
</g>
<!-- Node0x23c2270 -->
<g id="node10" class="node"><title>Node0x23c2270</title>
<polygon fill="none" stroke="black" points="751.5,-714.5 751.5,-750.5 1062.5,-750.5 1062.5,-714.5 751.5,-714.5"/>
<text text-anchor="start" x="759.5" y="-728.8" font-family="Times,serif" font-size="14.00">if (scanf(&quot;%5hu%c&quot;, &amp;(v3), &amp;(v5)) == 2):</text>
</g>
<!-- Node0x2486730&#45;&gt;Node0x23c2270 -->
<g id="edge10" class="edge"><title>Node0x2486730&#45;&gt;Node0x23c2270</title>
<path fill="none" stroke="black" d="M907,-788.499C907,-779.206 907,-769.537 907,-760.946"/>
<polygon fill="black" stroke="black" points="910.5,-760.749 907,-750.749 903.5,-760.749 910.5,-760.749"/>
</g>
<!-- Node0x248ebc0 -->
<g id="node11" class="node"><title>Node0x248ebc0</title>
<polygon fill="none" stroke="black" points="553,-23.5 553,-59.5 607,-59.5 607,-23.5 553,-23.5"/>
<text text-anchor="start" x="561" y="-37.8" font-family="Times,serif" font-size="14.00">exit:</text>
</g>
<!-- Node0x2477950&#45;&gt;Node0x248ebc0 -->
<g id="edge11" class="edge"><title>Node0x2477950&#45;&gt;Node0x248ebc0</title>
<path fill="none" stroke="black" d="M449.226,-413.498C434.632,-343.003 415.115,-195.843 478,-97 492.552,-74.1279 520.127,-60.2218 542.941,-52.1864"/>
<polygon fill="black" stroke="black" points="544.282,-55.4303 552.698,-48.9948 542.105,-48.7772 544.282,-55.4303"/>
</g>
<!-- Node0x23f7cc0 -->
<g id="node12" class="node"><title>Node0x23f7cc0</title>
<polygon fill="none" stroke="black" points="971.5,-624.5 971.5,-662.5 1150.5,-662.5 1150.5,-624.5 971.5,-624.5"/>
<text text-anchor="start" x="979.5" y="-647.3" font-family="Times,serif" font-size="14.00">0x109c0:</text>
<text text-anchor="start" x="979.5" y="-632.3" font-family="Times,serif" font-size="14.00"> if ((v5 % 256) == 10):</text>
</g>
<!-- Node0x23c2270&#45;&gt;Node0x23f7cc0 -->
<g id="edge12" class="edge"><title>Node0x23c2270&#45;&gt;Node0x23f7cc0</title>
<path fill="none" stroke="black" d="M937.425,-714.312C961.106,-700.934 994.2,-682.238 1020.18,-667.56"/>
<polygon fill="black" stroke="black" points="1022.06,-670.517 1029.05,-662.551 1018.62,-664.423 1022.06,-670.517"/>
<text text-anchor="middle" x="1126" y="-684.8" font-family="Times,serif" font-size="14.00">scanf(&quot;%5hu%c&quot;, &amp;(v3), &amp;(v5)) == 2</text>
</g>
<!-- Node0x23f7bd0 -->
<g id="node13" class="node"><title>Node0x23f7bd0</title>
<polygon fill="none" stroke="black" points="476,-534.5 476,-572.5 922,-572.5 922,-534.5 476,-534.5"/>
<text text-anchor="start" x="484" y="-557.3" font-family="Times,serif" font-size="14.00">0x109cc:</text>
<text text-anchor="start" x="484" y="-542.3" font-family="Times,serif" font-size="14.00"> puts(&quot;Something went wrong, next time check your input&quot;)</text>
</g>
<!-- Node0x23c2270&#45;&gt;Node0x23f7bd0 -->
<g id="edge13" class="edge"><title>Node0x23c2270&#45;&gt;Node0x23f7bd0</title>
<path fill="none" stroke="black" d="M780.187,-714.418C750.379,-704.248 721.844,-688.212 703,-663 685.896,-640.115 687.643,-606.295 691.915,-582.51"/>
<polygon fill="black" stroke="black" points="695.351,-583.177 693.924,-572.679 688.493,-581.775 695.351,-583.177"/>
<text text-anchor="middle" x="833" y="-639.8" font-family="Times,serif" font-size="14.00">scanf(&quot;%5hu%c&quot;, &amp;(v3), &amp;(v5)) != 2</text>
</g>
<!-- Node0x23f7cc0&#45;&gt;Node0x23f7bd0 -->
<g id="edge15" class="edge"><title>Node0x23f7cc0&#45;&gt;Node0x23f7bd0</title>
<path fill="none" stroke="black" d="M986.87,-624.48C927.794,-610.118 845.052,-590.004 783.429,-575.024"/>
<polygon fill="black" stroke="black" points="783.885,-571.533 773.341,-572.572 782.231,-578.335 783.885,-571.533"/>
<text text-anchor="middle" x="962.5" y="-594.8" font-family="Times,serif" font-size="14.00">(v5 % 256) != 10</text>
</g>
<!-- Node0x24816f0 -->
<g id="node14" class="node"><title>Node0x24816f0</title>
<polygon fill="none" stroke="black" points="1025,-535.5 1025,-571.5 1097,-571.5 1097,-535.5 1025,-535.5"/>
<text text-anchor="start" x="1033" y="-549.8" font-family="Times,serif" font-size="14.00">v6 = v3</text>
</g>
<!-- Node0x23f7cc0&#45;&gt;Node0x24816f0 -->
<g id="edge14" class="edge"><title>Node0x23f7cc0&#45;&gt;Node0x24816f0</title>
<path fill="none" stroke="black" d="M1061,-624.266C1061,-612.031 1061,-595.692 1061,-581.902"/>
<polygon fill="black" stroke="black" points="1064.5,-581.516 1061,-571.516 1057.5,-581.516 1064.5,-581.516"/>
<text text-anchor="middle" x="1125.5" y="-594.8" font-family="Times,serif" font-size="14.00">(v5 % 256) == 10</text>
</g>
<!-- Node0x23f7bd0&#45;&gt;Node0x2477950 -->
<g id="edge16" class="edge"><title>Node0x23f7bd0&#45;&gt;Node0x2477950</title>
<path fill="none" stroke="black" d="M654.139,-534.462C630.04,-524.772 599.176,-512.363 569.141,-500.286"/>
<polygon fill="black" stroke="black" points="570.439,-497.035 559.855,-496.552 567.828,-503.53 570.439,-497.035"/>
</g>
<!-- Node0x249c880 -->
<g id="node15" class="node"><title>Node0x249c880</title>
<polygon fill="none" stroke="black" points="914.5,-436 914.5,-474 1207.5,-474 1207.5,-436 914.5,-436"/>
<text text-anchor="start" x="922.5" y="-458.8" font-family="Times,serif" font-size="14.00">if (TruncCastExpr&lt;int16&gt;(v6) &lt; 513):</text>
<text text-anchor="start" x="922.5" y="-443.8" font-family="Times,serif" font-size="14.00"> else:</text>
</g>
<!-- Node0x24816f0&#45;&gt;Node0x249c880 -->
<g id="edge17" class="edge"><title>Node0x24816f0&#45;&gt;Node0x249c880</title>
<path fill="none" stroke="black" d="M1061,-535.248C1061,-521.106 1061,-500.803 1061,-484.288"/>
<polygon fill="black" stroke="black" points="1064.5,-484.085 1061,-474.085 1057.5,-484.085 1064.5,-484.085"/>
</g>
<!-- Node0x23bade0 -->
<g id="node16" class="node"><title>Node0x23bade0</title>
<polygon fill="none" stroke="black" points="495,-218.5 495,-361.5 1301,-361.5 1301,-218.5 495,-218.5"/>
<text text-anchor="start" x="503" y="-346.3" font-family="Times,serif" font-size="14.00">0x10a18:</text>
<text text-anchor="start" x="503" y="-331.3" font-family="Times,serif" font-size="14.00"> str2</text>
<text text-anchor="start" x="503" y="-316.3" font-family="Times,serif" font-size="14.00"> snprintf(BitCastExpr&lt;ptr&gt;(&amp;(str2)), 32, &quot;%%%zus&quot;, ExtCastExpr&lt;int64&gt;((v6 % 65536)))</text>
<text text-anchor="start" x="503" y="-301.3" font-family="Times,serif" font-size="14.00"> scanf(BitCastExpr&lt;ptr&gt;(&amp;(str2)))</text>
<text text-anchor="start" x="503" y="-286.3" font-family="Times,serif" font-size="14.00"> setlogmask(63)</text>
<text text-anchor="start" x="503" y="-271.3" font-family="Times,serif" font-size="14.00"> openlog(&quot;moonserver&quot;, (((LOG_PID &#45;&gt; 1) | (LOG_CONS &#45;&gt; 2)) | (LOG_NDELAY &#45;&gt; 8)), (LOG_LOCAL1 &#45;&gt; 136))</text>
<text text-anchor="start" x="503" y="-256.3" font-family="Times,serif" font-size="14.00"> syslog((LOG_NOTICE &#45;&gt; 5), &quot;Get new feedback &#45; %s&quot;, &amp;(v1))</text>
<text text-anchor="start" x="503" y="-241.3" font-family="Times,serif" font-size="14.00"> puts(&quot;Your opinion is very important to us.&quot;)</text>
<text text-anchor="start" x="503" y="-226.3" font-family="Times,serif" font-size="14.00"> closelog()</text>
</g>
<!-- Node0x249c880&#45;&gt;Node0x23bade0 -->
<g id="edge18" class="edge"><title>Node0x249c880&#45;&gt;Node0x23bade0</title>
<path fill="none" stroke="black" d="M1042.93,-435.933C1026.49,-419.487 1001.02,-394.022 975.998,-368.998"/>
<polygon fill="black" stroke="black" points="978.155,-366.205 968.609,-361.609 973.205,-371.155 978.155,-366.205"/>
<text text-anchor="middle" x="1121.5" y="-383.8" font-family="Times,serif" font-size="14.00">TruncCastExpr&lt;int16&gt;(v6) &lt; 513</text>
</g>
<!-- Node0x23b8870 -->
<g id="node17" class="node"><title>Node0x23b8870</title>
<polygon fill="none" stroke="black" points="1319.5,-271 1319.5,-309 1912.5,-309 1912.5,-271 1319.5,-271"/>
<text text-anchor="start" x="1327.5" y="-293.8" font-family="Times,serif" font-size="14.00">0x109fc:</text>
<text text-anchor="start" x="1327.5" y="-278.8" font-family="Times,serif" font-size="14.00"> printf(&quot;Sorry, %s, your message is too long\n&quot;, IntToPtrCastExpr&lt;ptr&gt;(lineptr))</text>
</g>
<!-- Node0x249c880&#45;&gt;Node0x23b8870 -->
<g id="edge19" class="edge"><title>Node0x249c880&#45;&gt;Node0x23b8870</title>
<path fill="none" stroke="black" d="M1122.52,-435.933C1226.21,-405.479 1435.2,-344.099 1544.97,-311.861"/>
<polygon fill="black" stroke="black" points="1546.02,-315.199 1554.63,-309.023 1544.05,-308.483 1546.02,-315.199"/>
<text text-anchor="middle" x="1434.5" y="-383.8" font-family="Times,serif" font-size="14.00">TruncCastExpr&lt;int16&gt;(v6) &gt;= 513</text>
</g>
<!-- Node0x23b1b90 -->
<g id="node18" class="node"><title>Node0x23b1b90</title>
<polygon fill="none" stroke="black" points="487,-97.5 487,-180.5 1349,-180.5 1349,-97.5 487,-97.5"/>
<text text-anchor="start" x="495" y="-165.3" font-family="Times,serif" font-size="14.00">0x10a9c:</text>
<text text-anchor="start" x="495" y="-150.3" font-family="Times,serif" font-size="14.00"> puts(&quot;Bye&#45;bye!&quot;)</text>
<text text-anchor="start" x="495" y="-135.3" font-family="Times,serif" font-size="14.00"> stream8 = (IntToPtrCastExpr&lt;ptr&gt;((PtrToIntCastExpr&lt;int32&gt;(&amp;(g1)) + 24)) if g3 else IntToPtrCastExpr&lt;ptr&gt;(24))</text>
<text text-anchor="start" x="495" y="-120.3" font-family="Times,serif" font-size="14.00"> fflush(IntToPtrCastExpr&lt;ptr&gt;(*(IntToPtrCastExpr&lt;ptr&gt;(*(stream8)))))</text>
<text text-anchor="start" x="495" y="-105.3" font-family="Times,serif" font-size="14.00"> return 0</text>
</g>
<!-- Node0x23bade0&#45;&gt;Node0x23b1b90 -->
<g id="edge20" class="edge"><title>Node0x23bade0&#45;&gt;Node0x23b1b90</title>
<path fill="none" stroke="black" d="M907.473,-218.427C908.721,-209.128 909.98,-199.747 911.172,-190.867"/>
<polygon fill="black" stroke="black" points="914.675,-191.082 912.536,-180.706 907.737,-190.151 914.675,-191.082"/>
</g>
<!-- Node0x23b8870&#45;&gt;Node0x23b1b90 -->
<g id="edge21" class="edge"><title>Node0x23b8870&#45;&gt;Node0x23b1b90</title>
<path fill="none" stroke="black" d="M1541.32,-270.979C1479.46,-256.216 1389.17,-235.057 1310,-218 1254.41,-206.023 1194.23,-193.72 1138.11,-182.528"/>
<polygon fill="black" stroke="black" points="1138.54,-179.045 1128.05,-180.525 1137.17,-185.91 1138.54,-179.045"/>
</g>
<!-- Node0x23b1b90&#45;&gt;Node0x248ebc0 -->
<g id="edge22" class="edge"><title>Node0x23b1b90&#45;&gt;Node0x248ebc0</title>
<path fill="none" stroke="black" d="M774.658,-97.4994C716.849,-81.166 654.941,-63.674 616.841,-52.9093"/>
<polygon fill="black" stroke="black" points="617.793,-49.5411 607.218,-50.1902 615.889,-56.2774 617.793,-49.5411"/>
</g>
</g>
</svg>
