<?xml version="1.0" encoding="UTF-8" standalone="no"?>
<!DOCTYPE svg PUBLIC "-//W3C//DTD SVG 1.1//EN"
 "http://www.w3.org/Graphics/SVG/1.1/DTD/svg11.dtd">
<!-- Generated by graphviz version 2.38.0 (20140413.2041)
 -->
<!-- Title: Control&#45;flow graph for function &#39;function_80485ab(a1)&#39;. Pages: 1 -->
<svg width="1263pt" height="935pt"
 viewBox="0.00 0.00 1263.00 935.00" xmlns="http://www.w3.org/2000/svg" xmlns:xlink="http://www.w3.org/1999/xlink">
<g id="graph0" class="graph" transform="scale(1 1) rotate(0) translate(4 931)">
<title>Control&#45;flow graph for function &#39;function_80485ab(a1)&#39;.</title>
<polygon fill="white" stroke="none" points="-4,4 -4,-931 1259,-931 1259,4 -4,4"/>
<text text-anchor="middle" x="627.5" y="-7.8" font-family="Times,serif" font-size="14.00">Control&#45;flow graph for function &#39;function_80485ab(a1)&#39;.</text>
<!-- Node0x2cf7900 -->
<g id="node1" class="node"><title>Node0x2cf7900</title>
<polygon fill="none" stroke="black" points="245.5,-888.5 245.5,-926.5 304.5,-926.5 304.5,-888.5 245.5,-888.5"/>
<text text-anchor="start" x="253.5" y="-911.3" font-family="Times,serif" font-size="14.00">entry:</text>
<text text-anchor="start" x="253.5" y="-896.3" font-family="Times,serif" font-size="14.00"> a1</text>
</g>
<!-- Node0x2d96150 -->
<g id="node2" class="node"><title>Node0x2d96150</title>
<polygon fill="none" stroke="black" points="185,-797.5 185,-850.5 365,-850.5 365,-797.5 185,-797.5"/>
<text text-anchor="start" x="193" y="-835.3" font-family="Times,serif" font-size="14.00">puts(&quot;Rev! Rev! Rev!&quot;)</text>
<text text-anchor="start" x="193" y="-820.3" font-family="Times,serif" font-size="14.00"> printf(&quot;Your input: &quot;)</text>
<text text-anchor="start" x="193" y="-805.3" font-family="Times,serif" font-size="14.00"> str</text>
</g>
<!-- Node0x2cf7900&#45;&gt;Node0x2d96150 -->
<g id="edge1" class="edge"><title>Node0x2cf7900&#45;&gt;Node0x2d96150</title>
<path fill="none" stroke="black" d="M275,-888.413C275,-880.285 275,-870.394 275,-860.864"/>
<polygon fill="black" stroke="black" points="278.5,-860.766 275,-850.766 271.5,-860.766 278.5,-860.766"/>
</g>
<!-- Node0x2d76680 -->
<g id="node3" class="node"><title>Node0x2d76680</title>
<polygon fill="none" stroke="black" points="69.5,-723.5 69.5,-759.5 480.5,-759.5 480.5,-723.5 69.5,-723.5"/>
<text text-anchor="start" x="77.5" y="-737.8" font-family="Times,serif" font-size="14.00">if (fgets(BitCastExpr&lt;ptr&gt;(&amp;(str)), 33, g6) == NULL):</text>
</g>
<!-- Node0x2d96150&#45;&gt;Node0x2d76680 -->
<g id="edge2" class="edge"><title>Node0x2d96150&#45;&gt;Node0x2d76680</title>
<path fill="none" stroke="black" d="M275,-797.086C275,-788.46 275,-778.822 275,-770.075"/>
<polygon fill="black" stroke="black" points="278.5,-769.973 275,-759.974 271.5,-769.974 278.5,-769.973"/>
</g>
<!-- Node0x2d9c130 -->
<g id="node4" class="node"><title>Node0x2d9c130</title>
<polygon fill="none" stroke="black" points="0,-486.5 0,-554.5 162,-554.5 162,-486.5 0,-486.5"/>
<text text-anchor="start" x="8" y="-539.3" font-family="Times,serif" font-size="14.00">0x804860a:</text>
<text text-anchor="start" x="8" y="-524.3" font-family="Times,serif" font-size="14.00"> puts(&quot;Input Error.&quot;)</text>
<text text-anchor="start" x="8" y="-509.3" font-family="Times,serif" font-size="14.00"> exit(0)</text>
<text text-anchor="start" x="8" y="-494.3" font-family="Times,serif" font-size="14.00"> # UNREACHABLE</text>
</g>
<!-- Node0x2d76680&#45;&gt;Node0x2d9c130 -->
<g id="edge3" class="edge"><title>Node0x2d76680&#45;&gt;Node0x2d9c130</title>
<path fill="none" stroke="black" d="M114.909,-723.395C97.8757,-718.679 84.4079,-712.666 78,-705 45.6242,-666.269 54.4718,-605.193 65.9179,-564.265"/>
<polygon fill="black" stroke="black" points="69.3036,-565.158 68.7805,-554.576 62.5904,-563.175 69.3036,-565.158"/>
<text text-anchor="middle" x="261" y="-693.8" font-family="Times,serif" font-size="14.00">fgets(BitCastExpr&lt;ptr&gt;(&amp;(str)), 33, g6) == NULL</text>
</g>
<!-- Node0x2d6ca40 -->
<g id="node5" class="node"><title>Node0x2d6ca40</title>
<polygon fill="none" stroke="black" points="295,-573.5 295,-671.5 645,-671.5 645,-573.5 295,-573.5"/>
<text text-anchor="start" x="303" y="-656.3" font-family="Times,serif" font-size="14.00">0x8048624:</text>
<text text-anchor="start" x="303" y="-641.3" font-family="Times,serif" font-size="14.00"> function_80486b9(BitCastExpr&lt;ptr&gt;(&amp;(str)))</text>
<text text-anchor="start" x="303" y="-626.3" font-family="Times,serif" font-size="14.00"> function_80486db(BitCastExpr&lt;ptr&gt;(&amp;(str)))</text>
<text text-anchor="start" x="303" y="-611.3" font-family="Times,serif" font-size="14.00"> function_8048738(BitCastExpr&lt;ptr&gt;(&amp;(str)))</text>
<text text-anchor="start" x="303" y="-596.3" font-family="Times,serif" font-size="14.00"> function_80487b2(BitCastExpr&lt;ptr&gt;(&amp;(str)))</text>
<text text-anchor="start" x="303" y="-581.3" font-family="Times,serif" font-size="14.00"> str2 = *(BitCastExpr&lt;ptr&gt;(&amp;(g5)))</text>
</g>
<!-- Node0x2d76680&#45;&gt;Node0x2d6ca40 -->
<g id="edge4" class="edge"><title>Node0x2d76680&#45;&gt;Node0x2d6ca40</title>
<path fill="none" stroke="black" d="M402.611,-723.463C422.996,-718.594 440.016,-712.51 448,-705 454.821,-698.585 459.607,-690.295 462.95,-681.467"/>
<polygon fill="black" stroke="black" points="466.349,-682.329 466.039,-671.738 459.677,-680.21 466.349,-682.329"/>
<text text-anchor="middle" x="639" y="-693.8" font-family="Times,serif" font-size="14.00">fgets(BitCastExpr&lt;ptr&gt;(&amp;(str)), 33, g6) != NULL</text>
</g>
<!-- Node0x2d0ca70 -->
<g id="node6" class="node"><title>Node0x2d0ca70</title>
<polygon fill="none" stroke="black" points="85,-23.5 85,-59.5 139,-59.5 139,-23.5 85,-23.5"/>
<text text-anchor="start" x="93" y="-37.8" font-family="Times,serif" font-size="14.00">exit:</text>
</g>
<!-- Node0x2d9c130&#45;&gt;Node0x2d0ca70 -->
<g id="edge5" class="edge"><title>Node0x2d9c130&#45;&gt;Node0x2d0ca70</title>
<path fill="none" stroke="black" d="M81,-486.286C81,-463.317 81,-432.052 81,-404.5 81,-404.5 81,-404.5 81,-115.5 81,-98.9428 87.8399,-81.8333 95.094,-68.3437"/>
<polygon fill="black" stroke="black" points="98.1515,-70.0478 100.103,-59.6343 92.0835,-66.5578 98.1515,-70.0478"/>
</g>
<!-- Node0x2d6e600 -->
<g id="node7" class="node"><title>Node0x2d6e600</title>
<polygon fill="none" stroke="black" points="190,-429.5 190,-467.5 750,-467.5 750,-429.5 190,-429.5"/>
<text text-anchor="start" x="198" y="-452.3" font-family="Times,serif" font-size="14.00">if (strcmp(BitCastExpr&lt;ptr&gt;(&amp;(str)), IntToPtrCastExpr&lt;ptr&gt;(str2)) == 0):</text>
<text text-anchor="start" x="198" y="-437.3" font-family="Times,serif" font-size="14.00"> else:</text>
</g>
<!-- Node0x2d6ca40&#45;&gt;Node0x2d6e600 -->
<g id="edge6" class="edge"><title>Node0x2d6ca40&#45;&gt;Node0x2d6e600</title>
<path fill="none" stroke="black" d="M470,-573.131C470,-542.353 470,-503.566 470,-477.726"/>
<polygon fill="black" stroke="black" points="473.5,-477.505 470,-467.505 466.5,-477.505 473.5,-477.505"/>
</g>
<!-- Node0x2d83b90 -->
<g id="node8" class="node"><title>Node0x2d83b90</title>
<polygon fill="none" stroke="black" points="309,-339.5 309,-377.5 447,-377.5 447,-339.5 309,-339.5"/>
<text text-anchor="start" x="317" y="-362.3" font-family="Times,serif" font-size="14.00">0x8048679:</text>
<text text-anchor="start" x="317" y="-347.3" font-family="Times,serif" font-size="14.00"> puts(&quot;Correct!&quot;)</text>
</g>
<!-- Node0x2d6e600&#45;&gt;Node0x2d83b90 -->
<g id="edge7" class="edge"><title>Node0x2d6e600&#45;&gt;Node0x2d83b90</title>
<path fill="none" stroke="black" d="M263.853,-429.468C247.971,-424.669 235.553,-418.62 229,-411 204.009,-381.939 250.946,-369.262 298.597,-363.74"/>
<polygon fill="black" stroke="black" points="299.173,-367.198 308.75,-362.666 298.437,-360.237 299.173,-367.198"/>
<text text-anchor="middle" x="486" y="-399.8" font-family="Times,serif" font-size="14.00">strcmp(BitCastExpr&lt;ptr&gt;(&amp;(str)), IntToPtrCastExpr&lt;ptr&gt;(str2)) == 0</text>
</g>
<!-- Node0x2d83c20 -->
<g id="node9" class="node"><title>Node0x2d83c20</title>
<polygon fill="none" stroke="black" points="599,-339.5 599,-377.5 731,-377.5 731,-339.5 599,-339.5"/>
<text text-anchor="start" x="607" y="-362.3" font-family="Times,serif" font-size="14.00">0x804868b:</text>
<text text-anchor="start" x="607" y="-347.3" font-family="Times,serif" font-size="14.00"> puts(&quot;Invalid!&quot;)</text>
</g>
<!-- Node0x2d6e600&#45;&gt;Node0x2d83c20 -->
<g id="edge8" class="edge"><title>Node0x2d6e600&#45;&gt;Node0x2d83c20</title>
<path fill="none" stroke="black" d="M709.502,-429.466C724.595,-424.616 736.387,-418.556 743,-411 752.735,-399.877 745.666,-390.149 732.519,-382.231"/>
<polygon fill="black" stroke="black" points="734.12,-379.119 723.643,-377.539 730.848,-385.307 734.12,-379.119"/>
<text text-anchor="middle" x="1001" y="-399.8" font-family="Times,serif" font-size="14.00">strcmp(BitCastExpr&lt;ptr&gt;(&amp;(str)), IntToPtrCastExpr&lt;ptr&gt;(str2)) != 0</text>
</g>
<!-- Node0x2d500e0 -->
<g id="node10" class="node"><title>Node0x2d500e0</title>
<polygon fill="none" stroke="black" points="209.5,-263.5 209.5,-301.5 726.5,-301.5 726.5,-263.5 209.5,-263.5"/>
<text text-anchor="start" x="217.5" y="-286.3" font-family="Times,serif" font-size="14.00">0x804869b:</text>
<text text-anchor="start" x="217.5" y="-271.3" font-family="Times,serif" font-size="14.00"> if (*(IntToPtrCastExpr&lt;ptr&gt;(20)) != *(IntToPtrCastExpr&lt;ptr&gt;(20))):</text>
</g>
<!-- Node0x2d83b90&#45;&gt;Node0x2d500e0 -->
<g id="edge9" class="edge"><title>Node0x2d83b90&#45;&gt;Node0x2d500e0</title>
<path fill="none" stroke="black" d="M400.247,-339.208C411.691,-329.799 425.799,-318.199 438.173,-308.025"/>
<polygon fill="black" stroke="black" points="440.507,-310.636 446.009,-301.582 436.062,-305.229 440.507,-310.636"/>
</g>
<!-- Node0x2d83c20&#45;&gt;Node0x2d500e0 -->
<g id="edge10" class="edge"><title>Node0x2d83c20&#45;&gt;Node0x2d500e0</title>
<path fill="none" stroke="black" d="M617.06,-339.492C589.535,-329.153 554.783,-316.099 525.759,-305.196"/>
<polygon fill="black" stroke="black" points="526.747,-301.829 516.155,-301.589 524.285,-308.382 526.747,-301.829"/>
</g>
<!-- Node0x2cef460 -->
<g id="node11" class="node"><title>Node0x2cef460</title>
<polygon fill="none" stroke="black" points="108.5,-173.5 108.5,-211.5 257.5,-211.5 257.5,-173.5 108.5,-173.5"/>
<text text-anchor="start" x="116.5" y="-196.3" font-family="Times,serif" font-size="14.00">0x80486ac:</text>
<text text-anchor="start" x="116.5" y="-181.3" font-family="Times,serif" font-size="14.00"> __stack_chk_fail()</text>
</g>
<!-- Node0x2d500e0&#45;&gt;Node0x2cef460 -->
<g id="edge11" class="edge"><title>Node0x2d500e0&#45;&gt;Node0x2cef460</title>
<path fill="none" stroke="black" d="M219.704,-263.485C183.251,-258.522 155.61,-252.409 149,-245 141.939,-237.085 145.424,-227.59 152.354,-218.921"/>
<polygon fill="black" stroke="black" points="154.929,-221.291 159.153,-211.575 149.792,-216.537 154.929,-221.291"/>
<text text-anchor="middle" x="382.5" y="-233.8" font-family="Times,serif" font-size="14.00">*(IntToPtrCastExpr&lt;ptr&gt;(20)) != *(IntToPtrCastExpr&lt;ptr&gt;(20))</text>
</g>
<!-- Node0x2db0f40 -->
<g id="node12" class="node"><title>Node0x2db0f40</title>
<polygon fill="none" stroke="black" points="132.5,-97.5 132.5,-135.5 233.5,-135.5 233.5,-97.5 132.5,-97.5"/>
<text text-anchor="start" x="140.5" y="-120.3" font-family="Times,serif" font-size="14.00">0x80486b1:</text>
<text text-anchor="start" x="140.5" y="-105.3" font-family="Times,serif" font-size="14.00"> return 0</text>
</g>
<!-- Node0x2d500e0&#45;&gt;Node0x2db0f40 -->
<g id="edge12" class="edge"><title>Node0x2d500e0&#45;&gt;Node0x2db0f40</title>
<path fill="none" stroke="black" d="M606.992,-263.465C621.781,-255.893 627.734,-245.172 616,-230 570.602,-171.299 351.728,-137.55 243.647,-124.209"/>
<polygon fill="black" stroke="black" points="243.892,-120.713 233.543,-122.982 243.048,-127.662 243.892,-120.713"/>
<text text-anchor="middle" x="828.5" y="-188.8" font-family="Times,serif" font-size="14.00">*(IntToPtrCastExpr&lt;ptr&gt;(20)) == *(IntToPtrCastExpr&lt;ptr&gt;(20))</text>
</g>
<!-- Node0x2cef460&#45;&gt;Node0x2db0f40 -->
<g id="edge13" class="edge"><title>Node0x2cef460&#45;&gt;Node0x2db0f40</title>
<path fill="none" stroke="black" d="M183,-173.208C183,-164.964 183,-155.038 183,-145.862"/>
<polygon fill="black" stroke="black" points="186.5,-145.582 183,-135.582 179.5,-145.582 186.5,-145.582"/>
</g>
<!-- Node0x2db0f40&#45;&gt;Node0x2d0ca70 -->
<g id="edge14" class="edge"><title>Node0x2db0f40&#45;&gt;Node0x2d0ca70</title>
<path fill="none" stroke="black" d="M165.449,-97.4551C156.549,-88.3035 145.605,-77.0516 135.943,-67.1177"/>
<polygon fill="black" stroke="black" points="138.341,-64.563 128.86,-59.8347 133.323,-69.4436 138.341,-64.563"/>
</g>
</g>
</svg>
