<?xml version="1.0" encoding="UTF-8" standalone="no"?>
<!DOCTYPE svg PUBLIC "-//W3C//DTD SVG 1.1//EN"
 "http://www.w3.org/Graphics/SVG/1.1/DTD/svg11.dtd">
<!-- Generated by graphviz version 2.38.0 (20140413.2041)
 -->
<!-- Title: Control&#45;flow graph for function &#39;function_80486db(*str)&#39;. Pages: 1 -->
<svg width="540pt" height="721pt"
 viewBox="0.00 0.00 539.50 721.00" xmlns="http://www.w3.org/2000/svg" xmlns:xlink="http://www.w3.org/1999/xlink">
<g id="graph0" class="graph" transform="scale(1 1) rotate(0) translate(4 717)">
<title>Control&#45;flow graph for function &#39;function_80486db(*str)&#39;.</title>
<polygon fill="white" stroke="none" points="-4,4 -4,-717 535.5,-717 535.5,4 -4,4"/>
<text text-anchor="middle" x="265.75" y="-7.8" font-family="Times,serif" font-size="14.00">Control&#45;flow graph for function &#39;function_80486db(*str)&#39;.</text>
<!-- Node0x2dae3c0 -->
<g id="node1" class="node"><title>Node0x2dae3c0</title>
<polygon fill="none" stroke="black" points="120,-674.5 120,-712.5 179,-712.5 179,-674.5 120,-674.5"/>
<text text-anchor="start" x="128" y="-697.3" font-family="Times,serif" font-size="14.00">entry:</text>
<text text-anchor="start" x="128" y="-682.3" font-family="Times,serif" font-size="14.00"> str</text>
</g>
<!-- Node0x2dae320 -->
<g id="node2" class="node"><title>Node0x2dae320</title>
<polygon fill="none" stroke="black" points="0,-598.5 0,-636.5 299,-636.5 299,-598.5 0,-598.5"/>
<text text-anchor="start" x="8" y="-621.3" font-family="Times,serif" font-size="14.00">result = PtrToIntCastExpr&lt;int32&gt;(str)</text>
<text text-anchor="start" x="8" y="-606.3" font-family="Times,serif" font-size="14.00"> v1 = ((strlen(str) &#45; 1) + result)</text>
</g>
<!-- Node0x2dae3c0&#45;&gt;Node0x2dae320 -->
<g id="edge1" class="edge"><title>Node0x2dae3c0&#45;&gt;Node0x2dae320</title>
<path fill="none" stroke="black" d="M149.5,-674.208C149.5,-665.964 149.5,-656.038 149.5,-646.862"/>
<polygon fill="black" stroke="black" points="153,-646.582 149.5,-636.582 146,-646.582 153,-646.582"/>
</g>
<!-- Node0x2dd1db0 -->
<g id="node3" class="node"><title>Node0x2dd1db0</title>
<polygon fill="none" stroke="black" points="80.5,-524.5 80.5,-560.5 218.5,-560.5 218.5,-524.5 80.5,-524.5"/>
<text text-anchor="start" x="88.5" y="-538.8" font-family="Times,serif" font-size="14.00">if (result &gt;= v1):</text>
</g>
<!-- Node0x2dae320&#45;&gt;Node0x2dd1db0 -->
<g id="edge2" class="edge"><title>Node0x2dae320&#45;&gt;Node0x2dd1db0</title>
<path fill="none" stroke="black" d="M149.5,-598.455C149.5,-590.201 149.5,-580.238 149.5,-571.074"/>
<polygon fill="black" stroke="black" points="153,-570.835 149.5,-560.835 146,-570.835 153,-570.835"/>
</g>
<!-- Node0x2da7b00 -->
<g id="node4" class="node"><title>Node0x2da7b00</title>
<polygon fill="none" stroke="black" points="10,-332.5 10,-370.5 123,-370.5 123,-332.5 10,-332.5"/>
<text text-anchor="start" x="18" y="-355.3" font-family="Times,serif" font-size="14.00">0x8048735:</text>
<text text-anchor="start" x="18" y="-340.3" font-family="Times,serif" font-size="14.00"> return result</text>
</g>
<!-- Node0x2dd1db0&#45;&gt;Node0x2da7b00 -->
<g id="edge3" class="edge"><title>Node0x2dd1db0&#45;&gt;Node0x2da7b00</title>
<path fill="none" stroke="black" d="M117.741,-524.318C110.826,-519.246 104.186,-513.112 99.5,-506 74.3042,-467.758 67.9662,-413.598 66.5859,-380.884"/>
<polygon fill="black" stroke="black" points="70.078,-380.56 66.2878,-370.666 63.081,-380.764 70.078,-380.56"/>
<text text-anchor="middle" x="146" y="-494.8" font-family="Times,serif" font-size="14.00">result &gt;= v1</text>
</g>
<!-- Node0x2d0e1b0 -->
<g id="node5" class="node"><title>Node0x2d0e1b0</title>
<polygon fill="none" stroke="black" points="154.5,-389.5 154.5,-472.5 410.5,-472.5 410.5,-389.5 154.5,-389.5"/>
<text text-anchor="start" x="162.5" y="-457.3" font-family="Times,serif" font-size="14.00">v2 = IntToPtrCastExpr&lt;ptr&gt;(v1)</text>
<text text-anchor="start" x="162.5" y="-442.3" font-family="Times,serif" font-size="14.00"> *(str) = *(v2)</text>
<text text-anchor="start" x="162.5" y="-427.3" font-family="Times,serif" font-size="14.00"> *(v2) = *(str)</text>
<text text-anchor="start" x="162.5" y="-412.3" font-family="Times,serif" font-size="14.00"> result2 = (result + 1)</text>
<text text-anchor="start" x="162.5" y="-397.3" font-family="Times,serif" font-size="14.00"> v3 = (v1 &#45; 1)</text>
</g>
<!-- Node0x2dd1db0&#45;&gt;Node0x2d0e1b0 -->
<g id="edge4" class="edge"><title>Node0x2dd1db0&#45;&gt;Node0x2d0e1b0</title>
<path fill="none" stroke="black" d="M170.281,-524.391C185.116,-512.177 205.833,-495.121 225.434,-478.983"/>
<polygon fill="black" stroke="black" points="227.669,-481.676 233.165,-472.618 223.22,-476.272 227.669,-481.676"/>
<text text-anchor="middle" x="249" y="-494.8" font-family="Times,serif" font-size="14.00">result &lt; v1</text>
</g>
<!-- Node0x2d6bda0 -->
<g id="node6" class="node"><title>Node0x2d6bda0</title>
<polygon fill="none" stroke="black" points="145.5,-23.5 145.5,-59.5 199.5,-59.5 199.5,-23.5 145.5,-23.5"/>
<text text-anchor="start" x="153.5" y="-37.8" font-family="Times,serif" font-size="14.00">exit:</text>
</g>
<!-- Node0x2da7b00&#45;&gt;Node0x2d6bda0 -->
<g id="edge5" class="edge"><title>Node0x2da7b00&#45;&gt;Node0x2d6bda0</title>
<path fill="none" stroke="black" d="M62.5384,-332.259C54.0003,-288.141 38.1754,-173.656 84.5,-97 96.1087,-77.7905 117.337,-64.3523 136.035,-55.6264"/>
<polygon fill="black" stroke="black" points="137.477,-58.8159 145.236,-51.6022 134.672,-52.4024 137.477,-58.8159"/>
</g>
<!-- Node0x2d8dce0 -->
<g id="node7" class="node"><title>Node0x2d8dce0</title>
<polygon fill="none" stroke="black" points="208.5,-277.5 208.5,-313.5 372.5,-313.5 372.5,-277.5 208.5,-277.5"/>
<text text-anchor="start" x="216.5" y="-291.8" font-family="Times,serif" font-size="14.00">while (result2 &lt; v3):</text>
</g>
<!-- Node0x2d0e1b0&#45;&gt;Node0x2d8dce0 -->
<g id="edge6" class="edge"><title>Node0x2d0e1b0&#45;&gt;Node0x2d8dce0</title>
<path fill="none" stroke="black" d="M284.944,-389.22C286.217,-367.969 287.74,-342.556 288.869,-323.714"/>
<polygon fill="black" stroke="black" points="292.363,-323.918 289.468,-313.726 285.376,-323.499 292.363,-323.918"/>
</g>
<!-- Node0x2d91c30 -->
<g id="node8" class="node"><title>Node0x2d91c30</title>
<polygon fill="none" stroke="black" points="94,-97.5 94,-225.5 391,-225.5 391,-97.5 94,-97.5"/>
<text text-anchor="start" x="102" y="-210.3" font-family="Times,serif" font-size="14.00">0x8048708:</text>
<text text-anchor="start" x="102" y="-195.3" font-family="Times,serif" font-size="14.00"> v1 = v3</text>
<text text-anchor="start" x="102" y="-180.3" font-family="Times,serif" font-size="14.00"> str = IntToPtrCastExpr&lt;ptr&gt;(result2)</text>
<text text-anchor="start" x="102" y="-165.3" font-family="Times,serif" font-size="14.00"> v2 = IntToPtrCastExpr&lt;ptr&gt;(v1)</text>
<text text-anchor="start" x="102" y="-150.3" font-family="Times,serif" font-size="14.00"> *(str) = *(v2)</text>
<text text-anchor="start" x="102" y="-135.3" font-family="Times,serif" font-size="14.00"> *(v2) = *(str)</text>
<text text-anchor="start" x="102" y="-120.3" font-family="Times,serif" font-size="14.00"> result2 = (result2 + 1)</text>
<text text-anchor="start" x="102" y="-105.3" font-family="Times,serif" font-size="14.00"> v3 = (v1 &#45; 1)</text>
</g>
<!-- Node0x2d8dce0&#45;&gt;Node0x2d91c30 -->
<g id="edge7" class="edge"><title>Node0x2d8dce0&#45;&gt;Node0x2d91c30</title>
<path fill="none" stroke="black" d="M208.419,-277.491C200.266,-272.746 192.991,-266.7 187.5,-259 182.207,-251.577 180.745,-243.605 181.879,-235.539"/>
<polygon fill="black" stroke="black" points="185.312,-236.246 184.467,-225.685 178.542,-234.468 185.312,-236.246"/>
<text text-anchor="middle" x="232.5" y="-247.8" font-family="Times,serif" font-size="14.00">result2 &lt; v3</text>
</g>
<!-- Node0x2d98020 -->
<g id="node9" class="node"><title>Node0x2d98020</title>
<polygon fill="none" stroke="black" points="409.5,-142.5 409.5,-180.5 531.5,-180.5 531.5,-142.5 409.5,-142.5"/>
<text text-anchor="start" x="417.5" y="-165.3" font-family="Times,serif" font-size="14.00">0x8048735:</text>
<text text-anchor="start" x="417.5" y="-150.3" font-family="Times,serif" font-size="14.00"> return result2</text>
</g>
<!-- Node0x2d8dce0&#45;&gt;Node0x2d98020 -->
<g id="edge8" class="edge"><title>Node0x2d8dce0&#45;&gt;Node0x2d98020</title>
<path fill="none" stroke="black" d="M321.347,-277.301C343.951,-264.224 375.007,-245.253 400.5,-226 415.897,-214.371 431.919,-200.027 444.743,-187.916"/>
<polygon fill="black" stroke="black" points="447.472,-190.149 452.28,-180.708 442.634,-185.09 447.472,-190.149"/>
<text text-anchor="middle" x="424.5" y="-247.8" font-family="Times,serif" font-size="14.00">result2 &gt;= v3</text>
</g>
<!-- Node0x2d91c30&#45;&gt;Node0x2d8dce0 -->
<g id="edge9" class="edge"><title>Node0x2d91c30&#45;&gt;Node0x2d8dce0</title>
<path fill="none" stroke="black" d="M270.78,-225.754C273.178,-231.873 275.461,-238.025 277.5,-244 280.072,-251.54 282.413,-259.864 284.376,-267.541"/>
<polygon fill="black" stroke="black" points="281.03,-268.594 286.806,-277.476 287.83,-266.93 281.03,-268.594"/>
</g>
<!-- Node0x2d98020&#45;&gt;Node0x2d6bda0 -->
<g id="edge10" class="edge"><title>Node0x2d98020&#45;&gt;Node0x2d6bda0</title>
<path fill="none" stroke="black" d="M455.367,-142.475C442.287,-128.052 422.121,-108.413 400.5,-97 338.43,-64.2352 256.517,-50.882 209.665,-45.656"/>
<polygon fill="black" stroke="black" points="209.971,-42.169 199.66,-44.6049 209.24,-49.1307 209.971,-42.169"/>
</g>
</g>
</svg>
