<?xml version="1.0" encoding="UTF-8" standalone="no"?>
<!DOCTYPE svg PUBLIC "-//W3C//DTD SVG 1.1//EN"
 "http://www.w3.org/Graphics/SVG/1.1/DTD/svg11.dtd">
<!-- Generated by graphviz version 2.38.0 (20140413.2041)
 -->
<!-- Title: Control&#45;flow graph for function &#39;function_80487b2(*a1)&#39;. Pages: 1 -->
<svg width="465pt" height="659pt"
 viewBox="0.00 0.00 465.00 659.00" xmlns="http://www.w3.org/2000/svg" xmlns:xlink="http://www.w3.org/1999/xlink">
<g id="graph0" class="graph" transform="scale(1 1) rotate(0) translate(4 655)">
<title>Control&#45;flow graph for function &#39;function_80487b2(*a1)&#39;.</title>
<polygon fill="white" stroke="none" points="-4,4 -4,-655 461,-655 461,4 -4,4"/>
<text text-anchor="middle" x="228.5" y="-7.8" font-family="Times,serif" font-size="14.00">Control&#45;flow graph for function &#39;function_80487b2(*a1)&#39;.</text>
<!-- Node0x2cfed40 -->
<g id="node1" class="node"><title>Node0x2cfed40</title>
<polygon fill="none" stroke="black" points="98,-612.5 98,-650.5 157,-650.5 157,-612.5 98,-612.5"/>
<text text-anchor="start" x="106" y="-635.3" font-family="Times,serif" font-size="14.00">entry:</text>
<text text-anchor="start" x="106" y="-620.3" font-family="Times,serif" font-size="14.00"> a1</text>
</g>
<!-- Node0x2d8f540 -->
<g id="node2" class="node"><title>Node0x2d8f540</title>
<polygon fill="none" stroke="black" points="82.5,-538.5 82.5,-574.5 172.5,-574.5 172.5,-538.5 82.5,-538.5"/>
<text text-anchor="start" x="90.5" y="-552.8" font-family="Times,serif" font-size="14.00">v1 = *(a1)</text>
</g>
<!-- Node0x2cfed40&#45;&gt;Node0x2d8f540 -->
<g id="edge1" class="edge"><title>Node0x2cfed40&#45;&gt;Node0x2d8f540</title>
<path fill="none" stroke="black" d="M127.5,-612.455C127.5,-604.201 127.5,-594.238 127.5,-585.074"/>
<polygon fill="black" stroke="black" points="131,-584.835 127.5,-574.835 124,-584.835 131,-584.835"/>
</g>
<!-- Node0x2cf2ed0 -->
<g id="node3" class="node"><title>Node0x2cf2ed0</title>
<polygon fill="none" stroke="black" points="75,-464.5 75,-500.5 180,-500.5 180,-464.5 75,-464.5"/>
<text text-anchor="start" x="83" y="-478.8" font-family="Times,serif" font-size="14.00">if (v1 == 0):</text>
</g>
<!-- Node0x2d8f540&#45;&gt;Node0x2cf2ed0 -->
<g id="edge2" class="edge"><title>Node0x2d8f540&#45;&gt;Node0x2cf2ed0</title>
<path fill="none" stroke="black" d="M127.5,-538.437C127.5,-530.307 127.5,-520.376 127.5,-511.205"/>
<polygon fill="black" stroke="black" points="131,-510.941 127.5,-500.941 124,-510.941 131,-510.941"/>
</g>
<!-- Node0x2cf2fe0 -->
<g id="node4" class="node"><title>Node0x2cf2fe0</title>
<polygon fill="none" stroke="black" points="0,-287.5 0,-325.5 101,-325.5 101,-287.5 0,-287.5"/>
<text text-anchor="start" x="8" y="-310.3" font-family="Times,serif" font-size="14.00">0x80487e3:</text>
<text text-anchor="start" x="8" y="-295.3" font-family="Times,serif" font-size="14.00"> return 0</text>
</g>
<!-- Node0x2cf2ed0&#45;&gt;Node0x2cf2fe0 -->
<g id="edge3" class="edge"><title>Node0x2cf2ed0&#45;&gt;Node0x2cf2fe0</title>
<path fill="none" stroke="black" d="M119.977,-464.499C106.66,-434.406 78.8264,-371.51 62.7233,-335.121"/>
<polygon fill="black" stroke="black" points="65.7617,-333.338 58.5143,-325.61 59.3605,-336.171 65.7617,-333.338"/>
<text text-anchor="middle" x="141.5" y="-434.8" font-family="Times,serif" font-size="14.00">v1 == 0</text>
</g>
<!-- Node0x2dc94f0 -->
<g id="node5" class="node"><title>Node0x2dc94f0</title>
<polygon fill="none" stroke="black" points="109,-344.5 109,-412.5 426,-412.5 426,-344.5 109,-344.5"/>
<text text-anchor="start" x="117" y="-397.3" font-family="Times,serif" font-size="14.00">*(a1) = (&#45;1 &#45; v1)</text>
<text text-anchor="start" x="117" y="-382.3" font-family="Times,serif" font-size="14.00"> v2 = (PtrToIntCastExpr&lt;int32&gt;(a1) + 1)</text>
<text text-anchor="start" x="117" y="-367.3" font-family="Times,serif" font-size="14.00"> v3 = IntToPtrCastExpr&lt;ptr&gt;(v2)</text>
<text text-anchor="start" x="117" y="-352.3" font-family="Times,serif" font-size="14.00"> v4 = *(v3)</text>
</g>
<!-- Node0x2cf2ed0&#45;&gt;Node0x2dc94f0 -->
<g id="edge4" class="edge"><title>Node0x2cf2ed0&#45;&gt;Node0x2dc94f0</title>
<path fill="none" stroke="black" d="M150.933,-464.427C168.12,-451.906 192.161,-434.39 213.948,-418.516"/>
<polygon fill="black" stroke="black" points="216.148,-421.244 222.169,-412.527 212.026,-415.587 216.148,-421.244"/>
<text text-anchor="middle" x="220.5" y="-434.8" font-family="Times,serif" font-size="14.00">v1 != 0</text>
</g>
<!-- Node0x2daab40 -->
<g id="node6" class="node"><title>Node0x2daab40</title>
<polygon fill="none" stroke="black" points="117.5,-23.5 117.5,-59.5 171.5,-59.5 171.5,-23.5 117.5,-23.5"/>
<text text-anchor="start" x="125.5" y="-37.8" font-family="Times,serif" font-size="14.00">exit:</text>
</g>
<!-- Node0x2cf2fe0&#45;&gt;Node0x2daab40 -->
<g id="edge5" class="edge"><title>Node0x2cf2fe0&#45;&gt;Node0x2daab40</title>
<path fill="none" stroke="black" d="M47.2862,-287.293C41.5224,-249.143 33.0974,-159.207 68.5,-97 77.5448,-81.1073 93.3409,-68.6499 108.197,-59.6812"/>
<polygon fill="black" stroke="black" points="110.282,-62.5229 117.257,-54.5482 106.831,-56.4324 110.282,-62.5229"/>
</g>
<!-- Node0x2d59a60 -->
<g id="node7" class="node"><title>Node0x2d59a60</title>
<polygon fill="none" stroke="black" points="210.5,-232.5 210.5,-268.5 338.5,-268.5 338.5,-232.5 210.5,-232.5"/>
<text text-anchor="start" x="218.5" y="-246.8" font-family="Times,serif" font-size="14.00">while (v4 != 0):</text>
</g>
<!-- Node0x2dc94f0&#45;&gt;Node0x2d59a60 -->
<g id="edge6" class="edge"><title>Node0x2dc94f0&#45;&gt;Node0x2d59a60</title>
<path fill="none" stroke="black" d="M269.339,-344.395C270.475,-323.942 271.916,-298.017 272.986,-278.755"/>
<polygon fill="black" stroke="black" points="276.493,-278.725 273.553,-268.546 269.504,-278.337 276.493,-278.725"/>
</g>
<!-- Node0x2d58fe0 -->
<g id="node8" class="node"><title>Node0x2d58fe0</title>
<polygon fill="none" stroke="black" points="77.5,-97.5 77.5,-180.5 337.5,-180.5 337.5,-97.5 77.5,-97.5"/>
<text text-anchor="start" x="85.5" y="-165.3" font-family="Times,serif" font-size="14.00">0x80487c0:</text>
<text text-anchor="start" x="85.5" y="-150.3" font-family="Times,serif" font-size="14.00"> *(v3) = (&#45;1 &#45; v4)</text>
<text text-anchor="start" x="85.5" y="-135.3" font-family="Times,serif" font-size="14.00"> v2 = (v2 + 1)</text>
<text text-anchor="start" x="85.5" y="-120.3" font-family="Times,serif" font-size="14.00"> v3 = IntToPtrCastExpr&lt;ptr&gt;(v2)</text>
<text text-anchor="start" x="85.5" y="-105.3" font-family="Times,serif" font-size="14.00"> v4 = *(v3)</text>
</g>
<!-- Node0x2d59a60&#45;&gt;Node0x2d58fe0 -->
<g id="edge7" class="edge"><title>Node0x2d59a60&#45;&gt;Node0x2d58fe0</title>
<path fill="none" stroke="black" d="M226.302,-232.379C218.805,-227.59 212.048,-221.557 207.5,-214 203.354,-207.112 201.235,-199.169 200.4,-191.1"/>
<polygon fill="black" stroke="black" points="203.888,-190.725 199.973,-180.88 196.894,-191.018 203.888,-190.725"/>
<text text-anchor="middle" x="234.5" y="-202.8" font-family="Times,serif" font-size="14.00">v4 != 0</text>
</g>
<!-- Node0x2d59c10 -->
<g id="node9" class="node"><title>Node0x2d59c10</title>
<polygon fill="none" stroke="black" points="356,-120 356,-158 457,-158 457,-120 356,-120"/>
<text text-anchor="start" x="364" y="-142.8" font-family="Times,serif" font-size="14.00">0x80487e3:</text>
<text text-anchor="start" x="364" y="-127.8" font-family="Times,serif" font-size="14.00"> return 0</text>
</g>
<!-- Node0x2d59a60&#45;&gt;Node0x2d59c10 -->
<g id="edge8" class="edge"><title>Node0x2d59a60&#45;&gt;Node0x2d59c10</title>
<path fill="none" stroke="black" d="M295.125,-232.391C317.109,-214.154 352.111,-185.118 377.005,-164.467"/>
<polygon fill="black" stroke="black" points="379.241,-167.16 384.703,-158.082 374.772,-161.773 379.241,-167.16"/>
<text text-anchor="middle" x="362.5" y="-202.8" font-family="Times,serif" font-size="14.00">v4 == 0</text>
</g>
<!-- Node0x2d58fe0&#45;&gt;Node0x2d59a60 -->
<g id="edge9" class="edge"><title>Node0x2d58fe0&#45;&gt;Node0x2d59a60</title>
<path fill="none" stroke="black" d="M249.168,-180.592C253.79,-186.448 258.06,-192.652 261.5,-199 265.399,-206.195 268.165,-214.605 270.112,-222.475"/>
<polygon fill="black" stroke="black" points="266.713,-223.315 272.227,-232.362 273.558,-221.851 266.713,-223.315"/>
</g>
<!-- Node0x2d59c10&#45;&gt;Node0x2daab40 -->
<g id="edge10" class="edge"><title>Node0x2d59c10&#45;&gt;Node0x2daab40</title>
<path fill="none" stroke="black" d="M383.939,-119.91C373.125,-111.958 359.679,-103.068 346.5,-97 291.75,-71.7919 223.106,-56.3648 181.583,-48.6301"/>
<polygon fill="black" stroke="black" points="182.1,-45.1667 171.636,-46.8281 180.852,-52.0546 182.1,-45.1667"/>
</g>
</g>
</svg>
