<?xml version="1.0" encoding="UTF-8" standalone="no"?>
<!DOCTYPE svg PUBLIC "-//W3C//DTD SVG 1.1//EN"
 "http://www.w3.org/Graphics/SVG/1.1/DTD/svg11.dtd">
<!-- Generated by graphviz version 2.38.0 (20140413.2041)
 -->
<!-- Title: Control&#45;flow graph for function &#39;function_80484e0()&#39;. Pages: 1 -->
<svg width="403pt" height="231pt"
 viewBox="0.00 0.00 403.00 231.00" xmlns="http://www.w3.org/2000/svg" xmlns:xlink="http://www.w3.org/1999/xlink">
<g id="graph0" class="graph" transform="scale(1 1) rotate(0) translate(4 227)">
<title>Control&#45;flow graph for function &#39;function_80484e0()&#39;.</title>
<polygon fill="white" stroke="none" points="-4,4 -4,-227 399,-227 399,4 -4,4"/>
<text text-anchor="middle" x="197.5" y="-7.8" font-family="Times,serif" font-size="14.00">Control&#45;flow graph for function &#39;function_80484e0()&#39;.</text>
<!-- Node0x2d8b930 -->
<g id="node1" class="node"><title>Node0x2d8b930</title>
<polygon fill="none" stroke="black" points="168,-186.5 168,-222.5 227,-222.5 227,-186.5 168,-186.5"/>
<text text-anchor="start" x="176" y="-200.8" font-family="Times,serif" font-size="14.00">entry:</text>
</g>
<!-- Node0x2d93dd0 -->
<g id="node2" class="node"><title>Node0x2d93dd0</title>
<polygon fill="none" stroke="black" points="141,-96.5 141,-149.5 254,-149.5 254,-96.5 141,-96.5"/>
<text text-anchor="start" x="149" y="-134.3" font-family="Times,serif" font-size="14.00">0x80484e0:</text>
<text text-anchor="start" x="149" y="-119.3" font-family="Times,serif" font-size="14.00"> result</text>
<text text-anchor="start" x="149" y="-104.3" font-family="Times,serif" font-size="14.00"> return result</text>
</g>
<!-- Node0x2d8b930&#45;&gt;Node0x2d93dd0 -->
<g id="edge1" class="edge"><title>Node0x2d8b930&#45;&gt;Node0x2d93dd0</title>
<path fill="none" stroke="black" d="M197.5,-186.25C197.5,-178.486 197.5,-169.014 197.5,-159.825"/>
<polygon fill="black" stroke="black" points="201,-159.676 197.5,-149.676 194,-159.676 201,-159.676"/>
</g>
<!-- Node0x2d66eb0 -->
<g id="node3" class="node"><title>Node0x2d66eb0</title>
<polygon fill="none" stroke="black" points="170.5,-23.5 170.5,-59.5 224.5,-59.5 224.5,-23.5 170.5,-23.5"/>
<text text-anchor="start" x="178.5" y="-37.8" font-family="Times,serif" font-size="14.00">exit:</text>
</g>
<!-- Node0x2d93dd0&#45;&gt;Node0x2d66eb0 -->
<g id="edge2" class="edge"><title>Node0x2d93dd0&#45;&gt;Node0x2d66eb0</title>
<path fill="none" stroke="black" d="M197.5,-96.4081C197.5,-87.9823 197.5,-78.5803 197.5,-70.0174"/>
<polygon fill="black" stroke="black" points="201,-69.7564 197.5,-59.7564 194,-69.7565 201,-69.7564"/>
</g>
</g>
</svg>
