<?xml version="1.0" encoding="UTF-8" standalone="no"?>
<!DOCTYPE svg PUBLIC "-//W3C//DTD SVG 1.1//EN"
 "http://www.w3.org/Graphics/SVG/1.1/DTD/svg11.dtd">
<!-- Generated by graphviz version 2.38.0 (20140413.2041)
 -->
<!-- Title: Control&#45;flow graph for function &#39;function_8048854()&#39;. Pages: 1 -->
<svg width="404pt" height="216pt"
 viewBox="0.00 0.00 404.00 216.00" xmlns="http://www.w3.org/2000/svg" xmlns:xlink="http://www.w3.org/1999/xlink">
<g id="graph0" class="graph" transform="scale(1 1) rotate(0) translate(4 212)">
<title>Control&#45;flow graph for function &#39;function_8048854()&#39;.</title>
<polygon fill="white" stroke="none" points="-4,4 -4,-212 400,-212 400,4 -4,4"/>
<text text-anchor="middle" x="198" y="-7.8" font-family="Times,serif" font-size="14.00">Control&#45;flow graph for function &#39;function_8048854()&#39;.</text>
<!-- Node0x2d98850 -->
<g id="node1" class="node"><title>Node0x2d98850</title>
<polygon fill="none" stroke="black" points="168.5,-171.5 168.5,-207.5 227.5,-207.5 227.5,-171.5 168.5,-171.5"/>
<text text-anchor="start" x="176.5" y="-185.8" font-family="Times,serif" font-size="14.00">entry:</text>
</g>
<!-- Node0x2db48b0 -->
<g id="node2" class="node"><title>Node0x2db48b0</title>
<polygon fill="none" stroke="black" points="117.5,-96.5 117.5,-134.5 278.5,-134.5 278.5,-96.5 117.5,-96.5"/>
<text text-anchor="start" x="125.5" y="-119.3" font-family="Times,serif" font-size="14.00">0x8048854:</text>
<text text-anchor="start" x="125.5" y="-104.3" font-family="Times,serif" font-size="14.00"> function_80484e0()</text>
</g>
<!-- Node0x2d98850&#45;&gt;Node0x2db48b0 -->
<g id="edge1" class="edge"><title>Node0x2d98850&#45;&gt;Node0x2db48b0</title>
<path fill="none" stroke="black" d="M198,-171.437C198,-163.487 198,-153.813 198,-144.813"/>
<polygon fill="black" stroke="black" points="201.5,-144.699 198,-134.699 194.5,-144.699 201.5,-144.699"/>
</g>
<!-- Node0x2d69280 -->
<g id="node3" class="node"><title>Node0x2d69280</title>
<polygon fill="none" stroke="black" points="171,-23.5 171,-59.5 225,-59.5 225,-23.5 171,-23.5"/>
<text text-anchor="start" x="179" y="-37.8" font-family="Times,serif" font-size="14.00">exit:</text>
</g>
<!-- Node0x2db48b0&#45;&gt;Node0x2d69280 -->
<g id="edge2" class="edge"><title>Node0x2db48b0&#45;&gt;Node0x2d69280</title>
<path fill="none" stroke="black" d="M198,-96.3314C198,-88.394 198,-78.9095 198,-70.1285"/>
<polygon fill="black" stroke="black" points="201.5,-69.9177 198,-59.9177 194.5,-69.9177 201.5,-69.9177"/>
</g>
</g>
</svg>
