<?xml version="1.0" encoding="UTF-8" standalone="no"?>
<!DOCTYPE svg PUBLIC "-//W3C//DTD SVG 1.1//EN"
 "http://www.w3.org/Graphics/SVG/1.1/DTD/svg11.dtd">
<!-- Generated by graphviz version 2.38.0 (20140413.2041)
 -->
<!-- Title: Control&#45;flow graph for function &#39;function_8048738(*a1)&#39;. Pages: 1 -->
<svg width="788pt" height="749pt"
 viewBox="0.00 0.00 788.00 749.00" xmlns="http://www.w3.org/2000/svg" xmlns:xlink="http://www.w3.org/1999/xlink">
<g id="graph0" class="graph" transform="scale(1 1) rotate(0) translate(4 745)">
<title>Control&#45;flow graph for function &#39;function_8048738(*a1)&#39;.</title>
<polygon fill="white" stroke="none" points="-4,4 -4,-745 784,-745 784,4 -4,4"/>
<text text-anchor="middle" x="390" y="-7.8" font-family="Times,serif" font-size="14.00">Control&#45;flow graph for function &#39;function_8048738(*a1)&#39;.</text>
<!-- Node0x2d55950 -->
<g id="node1" class="node"><title>Node0x2d55950</title>
<polygon fill="none" stroke="black" points="137,-702.5 137,-740.5 196,-740.5 196,-702.5 137,-702.5"/>
<text text-anchor="start" x="145" y="-725.3" font-family="Times,serif" font-size="14.00">entry:</text>
<text text-anchor="start" x="145" y="-710.3" font-family="Times,serif" font-size="14.00"> a1</text>
</g>
<!-- Node0x2d52570 -->
<g id="node2" class="node"><title>Node0x2d52570</title>
<polygon fill="none" stroke="black" points="121.5,-628.5 121.5,-664.5 211.5,-664.5 211.5,-628.5 121.5,-628.5"/>
<text text-anchor="start" x="129.5" y="-642.8" font-family="Times,serif" font-size="14.00">v1 = *(a1)</text>
</g>
<!-- Node0x2d55950&#45;&gt;Node0x2d52570 -->
<g id="edge1" class="edge"><title>Node0x2d55950&#45;&gt;Node0x2d52570</title>
<path fill="none" stroke="black" d="M166.5,-702.455C166.5,-694.201 166.5,-684.238 166.5,-675.074"/>
<polygon fill="black" stroke="black" points="170,-674.835 166.5,-664.835 163,-674.835 170,-674.835"/>
</g>
<!-- Node0x2dc0820 -->
<g id="node3" class="node"><title>Node0x2dc0820</title>
<polygon fill="none" stroke="black" points="114,-554.5 114,-590.5 219,-590.5 219,-554.5 114,-554.5"/>
<text text-anchor="start" x="122" y="-568.8" font-family="Times,serif" font-size="14.00">if (v1 == 0):</text>
</g>
<!-- Node0x2d52570&#45;&gt;Node0x2dc0820 -->
<g id="edge2" class="edge"><title>Node0x2d52570&#45;&gt;Node0x2dc0820</title>
<path fill="none" stroke="black" d="M166.5,-628.437C166.5,-620.307 166.5,-610.376 166.5,-601.205"/>
<polygon fill="black" stroke="black" points="170,-600.941 166.5,-590.941 163,-600.941 170,-600.941"/>
</g>
<!-- Node0x2cfedb0 -->
<g id="node4" class="node"><title>Node0x2cfedb0</title>
<polygon fill="none" stroke="black" points="0,-332.5 0,-370.5 97,-370.5 97,-332.5 0,-332.5"/>
<text text-anchor="start" x="8" y="-355.3" font-family="Times,serif" font-size="14.00">0x80487af:</text>
<text text-anchor="start" x="8" y="-340.3" font-family="Times,serif" font-size="14.00"> return 0</text>
</g>
<!-- Node0x2dc0820&#45;&gt;Node0x2cfedb0 -->
<g id="edge3" class="edge"><title>Node0x2dc0820&#45;&gt;Node0x2cfedb0</title>
<path fill="none" stroke="black" d="M153.188,-554.32C143.024,-540.792 129.022,-521.238 118.5,-503 94.6944,-461.738 72.4441,-411.008 59.6673,-380.244"/>
<polygon fill="black" stroke="black" points="62.7495,-378.536 55.7089,-370.619 56.2756,-381.199 62.7495,-378.536"/>
<text text-anchor="middle" x="170.5" y="-524.8" font-family="Times,serif" font-size="14.00">v1 == 0</text>
</g>
<!-- Node0x2d4bb40 -->
<g id="node5" class="node"><title>Node0x2d4bb40</title>
<polygon fill="none" stroke="black" points="127.5,-389.5 127.5,-502.5 717.5,-502.5 717.5,-389.5 127.5,-389.5"/>
<text text-anchor="start" x="135.5" y="-487.3" font-family="Times,serif" font-size="14.00">v2 = ExtCastExpr&lt;int32&gt;(v1)</text>
<text text-anchor="start" x="135.5" y="-472.3" font-family="Times,serif" font-size="14.00"> v3 = (((2 * v2) &amp; 170) | ((v2 / 2) &amp; 85))</text>
<text text-anchor="start" x="135.5" y="-457.3" font-family="Times,serif" font-size="14.00"> v4 = (((4 * v3) &amp; 204) | ((v3 / 4) &amp; 51))</text>
<text text-anchor="start" x="135.5" y="-442.3" font-family="Times,serif" font-size="14.00"> *(a1) = TruncCastExpr&lt;int8&gt;(((16777216 * ((16 * v4) | (v4 / 16))) / 16777216))</text>
<text text-anchor="start" x="135.5" y="-427.3" font-family="Times,serif" font-size="14.00"> v5 = (PtrToIntCastExpr&lt;int32&gt;(a1) + 1)</text>
<text text-anchor="start" x="135.5" y="-412.3" font-family="Times,serif" font-size="14.00"> v6 = IntToPtrCastExpr&lt;ptr&gt;(v5)</text>
<text text-anchor="start" x="135.5" y="-397.3" font-family="Times,serif" font-size="14.00"> v7 = *(v6)</text>
</g>
<!-- Node0x2dc0820&#45;&gt;Node0x2d4bb40 -->
<g id="edge4" class="edge"><title>Node0x2dc0820&#45;&gt;Node0x2d4bb40</title>
<path fill="none" stroke="black" d="M201.559,-554.45C227.122,-542.018 263.416,-524.367 299.217,-506.956"/>
<polygon fill="black" stroke="black" points="300.84,-510.059 308.302,-502.538 297.778,-503.764 300.84,-510.059"/>
<text text-anchor="middle" x="291.5" y="-524.8" font-family="Times,serif" font-size="14.00">v1 != 0</text>
</g>
<!-- Node0x2d52510 -->
<g id="node6" class="node"><title>Node0x2d52510</title>
<polygon fill="none" stroke="black" points="196.5,-23.5 196.5,-59.5 250.5,-59.5 250.5,-23.5 196.5,-23.5"/>
<text text-anchor="start" x="204.5" y="-37.8" font-family="Times,serif" font-size="14.00">exit:</text>
</g>
<!-- Node0x2cfedb0&#45;&gt;Node0x2d52510 -->
<g id="edge5" class="edge"><title>Node0x2cfedb0&#45;&gt;Node0x2d52510</title>
<path fill="none" stroke="black" d="M43.5539,-332.219C32.5005,-287.014 10.8432,-168.481 65.5,-97 93.8133,-59.9713 148.808,-47.954 185.85,-44.139"/>
<polygon fill="black" stroke="black" points="186.593,-47.5876 196.252,-43.2328 185.986,-40.614 186.593,-47.5876"/>
</g>
<!-- Node0x2da5ac0 -->
<g id="node7" class="node"><title>Node0x2da5ac0</title>
<polygon fill="none" stroke="black" points="371.5,-277.5 371.5,-313.5 499.5,-313.5 499.5,-277.5 371.5,-277.5"/>
<text text-anchor="start" x="379.5" y="-291.8" font-family="Times,serif" font-size="14.00">while (v7 != 0):</text>
</g>
<!-- Node0x2d4bb40&#45;&gt;Node0x2da5ac0 -->
<g id="edge6" class="edge"><title>Node0x2d4bb40&#45;&gt;Node0x2da5ac0</title>
<path fill="none" stroke="black" d="M427.378,-389.282C429.341,-366.854 431.515,-342.016 433.12,-323.687"/>
<polygon fill="black" stroke="black" points="436.607,-323.982 433.993,-313.715 429.634,-323.372 436.607,-323.982"/>
</g>
<!-- Node0x2cfee60 -->
<g id="node8" class="node"><title>Node0x2cfee60</title>
<polygon fill="none" stroke="black" points="74.5,-97.5 74.5,-225.5 664.5,-225.5 664.5,-97.5 74.5,-97.5"/>
<text text-anchor="start" x="82.5" y="-210.3" font-family="Times,serif" font-size="14.00">0x8048746:</text>
<text text-anchor="start" x="82.5" y="-195.3" font-family="Times,serif" font-size="14.00"> v2 = ExtCastExpr&lt;int32&gt;(v7)</text>
<text text-anchor="start" x="82.5" y="-180.3" font-family="Times,serif" font-size="14.00"> v3 = (((2 * v2) &amp; 170) | ((v2 / 2) &amp; 85))</text>
<text text-anchor="start" x="82.5" y="-165.3" font-family="Times,serif" font-size="14.00"> v4 = (((4 * v3) &amp; 204) | ((v3 / 4) &amp; 51))</text>
<text text-anchor="start" x="82.5" y="-150.3" font-family="Times,serif" font-size="14.00"> *(v6) = TruncCastExpr&lt;int8&gt;(((16777216 * ((16 * v4) | (v4 / 16))) / 16777216))</text>
<text text-anchor="start" x="82.5" y="-135.3" font-family="Times,serif" font-size="14.00"> v5 = (v5 + 1)</text>
<text text-anchor="start" x="82.5" y="-120.3" font-family="Times,serif" font-size="14.00"> v6 = IntToPtrCastExpr&lt;ptr&gt;(v5)</text>
<text text-anchor="start" x="82.5" y="-105.3" font-family="Times,serif" font-size="14.00"> v7 = *(v6)</text>
</g>
<!-- Node0x2da5ac0&#45;&gt;Node0x2cfee60 -->
<g id="edge7" class="edge"><title>Node0x2da5ac0&#45;&gt;Node0x2cfee60</title>
<path fill="none" stroke="black" d="M387.302,-277.379C379.805,-272.59 373.048,-266.557 368.5,-259 364.231,-251.907 361.647,-243.957 360.257,-235.746"/>
<polygon fill="black" stroke="black" points="363.717,-235.186 359.121,-225.64 356.76,-235.968 363.717,-235.186"/>
<text text-anchor="middle" x="395.5" y="-247.8" font-family="Times,serif" font-size="14.00">v7 != 0</text>
</g>
<!-- Node0x2d97f80 -->
<g id="node9" class="node"><title>Node0x2d97f80</title>
<polygon fill="none" stroke="black" points="683,-142.5 683,-180.5 780,-180.5 780,-142.5 683,-142.5"/>
<text text-anchor="start" x="691" y="-165.3" font-family="Times,serif" font-size="14.00">0x80487af:</text>
<text text-anchor="start" x="691" y="-150.3" font-family="Times,serif" font-size="14.00"> return 0</text>
</g>
<!-- Node0x2da5ac0&#45;&gt;Node0x2d97f80 -->
<g id="edge8" class="edge"><title>Node0x2da5ac0&#45;&gt;Node0x2d97f80</title>
<path fill="none" stroke="black" d="M499.505,-285.855C549.772,-276.848 619.979,-259.216 673.5,-226 688.902,-216.441 702.74,-201.667 713.033,-188.775"/>
<polygon fill="black" stroke="black" points="715.958,-190.712 719.267,-180.648 710.403,-186.452 715.958,-190.712"/>
<text text-anchor="middle" x="667.5" y="-247.8" font-family="Times,serif" font-size="14.00">v7 == 0</text>
</g>
<!-- Node0x2cfee60&#45;&gt;Node0x2da5ac0 -->
<g id="edge9" class="edge"><title>Node0x2cfee60&#45;&gt;Node0x2da5ac0</title>
<path fill="none" stroke="black" d="M413.473,-225.913C416.778,-231.893 419.85,-237.974 422.5,-244 425.707,-251.293 428.245,-259.539 430.196,-267.222"/>
<polygon fill="black" stroke="black" points="426.84,-268.248 432.498,-277.206 433.661,-266.675 426.84,-268.248"/>
</g>
<!-- Node0x2d97f80&#45;&gt;Node0x2d52510 -->
<g id="edge10" class="edge"><title>Node0x2d97f80&#45;&gt;Node0x2d52510</title>
<path fill="none" stroke="black" d="M720.348,-142.425C710.121,-127.56 693.544,-107.323 673.5,-97 601.67,-60.0074 355.559,-47.295 260.958,-43.7122"/>
<polygon fill="black" stroke="black" points="260.836,-40.2055 250.715,-43.3378 260.58,-47.2008 260.836,-40.2055"/>
</g>
</g>
</svg>
