<?xml version="1.0" encoding="UTF-8" standalone="no"?>
<!DOCTYPE svg PUBLIC "-//W3C//DTD SVG 1.1//EN"
 "http://www.w3.org/Graphics/SVG/1.1/DTD/svg11.dtd">
<!-- Generated by graphviz version 2.38.0 (20140413.2041)
 -->
<!-- Title: Control&#45;flow graph for function &#39;function_80484a0()&#39;. Pages: 1 -->
<svg width="403pt" height="216pt"
 viewBox="0.00 0.00 403.00 216.00" xmlns="http://www.w3.org/2000/svg" xmlns:xlink="http://www.w3.org/1999/xlink">
<g id="graph0" class="graph" transform="scale(1 1) rotate(0) translate(4 212)">
<title>Control&#45;flow graph for function &#39;function_80484a0()&#39;.</title>
<polygon fill="white" stroke="none" points="-4,4 -4,-212 399,-212 399,4 -4,4"/>
<text text-anchor="middle" x="197.5" y="-7.8" font-family="Times,serif" font-size="14.00">Control&#45;flow graph for function &#39;function_80484a0()&#39;.</text>
<!-- Node0x2dcf4c0 -->
<g id="node1" class="node"><title>Node0x2dcf4c0</title>
<polygon fill="none" stroke="black" points="168,-171.5 168,-207.5 227,-207.5 227,-171.5 168,-171.5"/>
<text text-anchor="start" x="176" y="-185.8" font-family="Times,serif" font-size="14.00">entry:</text>
</g>
<!-- Node0x2d8b8d0 -->
<g id="node2" class="node"><title>Node0x2d8b8d0</title>
<polygon fill="none" stroke="black" points="118,-96.5 118,-134.5 277,-134.5 277,-96.5 118,-96.5"/>
<text text-anchor="start" x="126" y="-119.3" font-family="Times,serif" font-size="14.00">0x80484a0:</text>
<text text-anchor="start" x="126" y="-104.3" font-family="Times,serif" font-size="14.00"> unknown_8049ffc()</text>
</g>
<!-- Node0x2dcf4c0&#45;&gt;Node0x2d8b8d0 -->
<g id="edge1" class="edge"><title>Node0x2dcf4c0&#45;&gt;Node0x2d8b8d0</title>
<path fill="none" stroke="black" d="M197.5,-171.437C197.5,-163.487 197.5,-153.813 197.5,-144.813"/>
<polygon fill="black" stroke="black" points="201,-144.699 197.5,-134.699 194,-144.699 201,-144.699"/>
</g>
<!-- Node0x2da6b60 -->
<g id="node3" class="node"><title>Node0x2da6b60</title>
<polygon fill="none" stroke="black" points="170.5,-23.5 170.5,-59.5 224.5,-59.5 224.5,-23.5 170.5,-23.5"/>
<text text-anchor="start" x="178.5" y="-37.8" font-family="Times,serif" font-size="14.00">exit:</text>
</g>
<!-- Node0x2d8b8d0&#45;&gt;Node0x2da6b60 -->
<g id="edge2" class="edge"><title>Node0x2d8b8d0&#45;&gt;Node0x2da6b60</title>
<path fill="none" stroke="black" d="M197.5,-96.3314C197.5,-88.394 197.5,-78.9095 197.5,-70.1285"/>
<polygon fill="black" stroke="black" points="201,-69.9177 197.5,-59.9177 194,-69.9177 201,-69.9177"/>
</g>
</g>
</svg>
