<?xml version="1.0" encoding="UTF-8" standalone="no"?>
<!DOCTYPE svg PUBLIC "-//W3C//DTD SVG 1.1//EN"
 "http://www.w3.org/Graphics/SVG/1.1/DTD/svg11.dtd">
<!-- Generated by graphviz version 2.38.0 (20140413.2041)
 -->
<!-- Title: Control&#45;flow graph for function &#39;entry_point(a1, a2)&#39;. Pages: 1 -->
<svg width="1478pt" height="263pt"
 viewBox="0.00 0.00 1478.00 263.00" xmlns="http://www.w3.org/2000/svg" xmlns:xlink="http://www.w3.org/1999/xlink">
<g id="graph0" class="graph" transform="scale(1 1) rotate(0) translate(4 259)">
<title>Control&#45;flow graph for function &#39;entry_point(a1, a2)&#39;.</title>
<polygon fill="white" stroke="none" points="-4,4 -4,-259 1474,-259 1474,4 -4,4"/>
<text text-anchor="middle" x="735" y="-7.8" font-family="Times,serif" font-size="14.00">Control&#45;flow graph for function &#39;entry_point(a1, a2)&#39;.</text>
<!-- Node0x2d45f50 -->
<g id="node1" class="node"><title>Node0x2d45f50</title>
<polygon fill="none" stroke="black" points="705.5,-201.5 705.5,-254.5 764.5,-254.5 764.5,-201.5 705.5,-201.5"/>
<text text-anchor="start" x="713.5" y="-239.3" font-family="Times,serif" font-size="14.00">entry:</text>
<text text-anchor="start" x="713.5" y="-224.3" font-family="Times,serif" font-size="14.00"> a1</text>
<text text-anchor="start" x="713.5" y="-209.3" font-family="Times,serif" font-size="14.00"> a2</text>
</g>
<!-- Node0x2dbc900 -->
<g id="node2" class="node"><title>Node0x2dbc900</title>
<polygon fill="none" stroke="black" points="-1.13687e-13,-96.5 -1.13687e-13,-164.5 1470,-164.5 1470,-96.5 -1.13687e-13,-96.5"/>
<text text-anchor="start" x="8" y="-149.3" font-family="Times,serif" font-size="14.00">v1</text>
<text text-anchor="start" x="8" y="-134.3" font-family="Times,serif" font-size="14.00"> g3 = v1</text>
<text text-anchor="start" x="8" y="-119.3" font-family="Times,serif" font-size="14.00"> result = __libc_start_main(BitCastExpr&lt;ptr&gt;(function_80485ab), v1, BitCastExpr&lt;ptr&gt;(&amp;(a1)), BitCastExpr&lt;ptr&gt;(function_80487f0), IntToPtrCastExpr&lt;ptr&gt;(134514768), IntToPtrCastExpr&lt;ptr&gt;(0))</text>
<text text-anchor="start" x="8" y="-104.3" font-family="Times,serif" font-size="14.00"> return result</text>
</g>
<!-- Node0x2d45f50&#45;&gt;Node0x2dbc900 -->
<g id="edge1" class="edge"><title>Node0x2d45f50&#45;&gt;Node0x2dbc900</title>
<path fill="none" stroke="black" d="M735,-201.408C735,-193.219 735,-183.912 735,-174.822"/>
<polygon fill="black" stroke="black" points="738.5,-174.721 735,-164.721 731.5,-174.721 738.5,-174.721"/>
</g>
<!-- Node0x2dbc8a0 -->
<g id="node3" class="node"><title>Node0x2dbc8a0</title>
<polygon fill="none" stroke="black" points="708,-23.5 708,-59.5 762,-59.5 762,-23.5 708,-23.5"/>
<text text-anchor="start" x="716" y="-37.8" font-family="Times,serif" font-size="14.00">exit:</text>
</g>
<!-- Node0x2dbc900&#45;&gt;Node0x2dbc8a0 -->
<g id="edge2" class="edge"><title>Node0x2dbc900&#45;&gt;Node0x2dbc8a0</title>
<path fill="none" stroke="black" d="M735,-96.1123C735,-87.3522 735,-78.0128 735,-69.6246"/>
<polygon fill="black" stroke="black" points="738.5,-69.6235 735,-59.6235 731.5,-69.6235 738.5,-69.6235"/>
</g>
</g>
</svg>
