<?xml version="1.0" encoding="UTF-8" standalone="no"?>
<!DOCTYPE svg PUBLIC "-//W3C//DTD SVG 1.1//EN"
 "http://www.w3.org/Graphics/SVG/1.1/DTD/svg11.dtd">
<!-- Generated by graphviz version 2.38.0 (20140413.2041)
 -->
<!-- Title: Control&#45;flow graph for function &#39;function_8048520(a1, a2)&#39;. Pages: 1 -->
<svg width="448pt" height="233pt"
 viewBox="0.00 0.00 448.00 233.00" xmlns="http://www.w3.org/2000/svg" xmlns:xlink="http://www.w3.org/1999/xlink">
<g id="graph0" class="graph" transform="scale(1 1) rotate(0) translate(4 229)">
<title>Control&#45;flow graph for function &#39;function_8048520(a1, a2)&#39;.</title>
<polygon fill="white" stroke="none" points="-4,4 -4,-229 444,-229 444,4 -4,4"/>
<text text-anchor="middle" x="220" y="-7.8" font-family="Times,serif" font-size="14.00">Control&#45;flow graph for function &#39;function_8048520(a1, a2)&#39;.</text>
<!-- Node0x2d8f3a0 -->
<g id="node1" class="node"><title>Node0x2d8f3a0</title>
<polygon fill="none" stroke="black" points="190.5,-171.5 190.5,-224.5 249.5,-224.5 249.5,-171.5 190.5,-171.5"/>
<text text-anchor="start" x="198.5" y="-209.3" font-family="Times,serif" font-size="14.00">entry:</text>
<text text-anchor="start" x="198.5" y="-194.3" font-family="Times,serif" font-size="14.00"> a1</text>
<text text-anchor="start" x="198.5" y="-179.3" font-family="Times,serif" font-size="14.00"> a2</text>
</g>
<!-- Node0x2dab060 -->
<g id="node2" class="node"><title>Node0x2dab060</title>
<polygon fill="none" stroke="black" points="169.5,-96.5 169.5,-134.5 270.5,-134.5 270.5,-96.5 169.5,-96.5"/>
<text text-anchor="start" x="177.5" y="-119.3" font-family="Times,serif" font-size="14.00">0x8048520:</text>
<text text-anchor="start" x="177.5" y="-104.3" font-family="Times,serif" font-size="14.00"> return 0</text>
</g>
<!-- Node0x2d8f3a0&#45;&gt;Node0x2dab060 -->
<g id="edge1" class="edge"><title>Node0x2d8f3a0&#45;&gt;Node0x2dab060</title>
<path fill="none" stroke="black" d="M220,-171.086C220,-162.813 220,-153.61 220,-145.154"/>
<polygon fill="black" stroke="black" points="223.5,-144.968 220,-134.968 216.5,-144.968 223.5,-144.968"/>
</g>
<!-- Node0x2cf7960 -->
<g id="node3" class="node"><title>Node0x2cf7960</title>
<polygon fill="none" stroke="black" points="193,-23.5 193,-59.5 247,-59.5 247,-23.5 193,-23.5"/>
<text text-anchor="start" x="201" y="-37.8" font-family="Times,serif" font-size="14.00">exit:</text>
</g>
<!-- Node0x2dab060&#45;&gt;Node0x2cf7960 -->
<g id="edge2" class="edge"><title>Node0x2dab060&#45;&gt;Node0x2cf7960</title>
<path fill="none" stroke="black" d="M220,-96.3314C220,-88.394 220,-78.9095 220,-70.1285"/>
<polygon fill="black" stroke="black" points="223.5,-69.9177 220,-59.9177 216.5,-69.9177 223.5,-69.9177"/>
</g>
</g>
</svg>
