<?xml version="1.0" encoding="UTF-8" standalone="no"?>
<!DOCTYPE svg PUBLIC "-//W3C//DTD SVG 1.1//EN"
 "http://www.w3.org/Graphics/SVG/1.1/DTD/svg11.dtd">
<!-- Generated by graphviz version 2.38.0 (20140413.2041)
 -->
<!-- Title: Control&#45;flow graph for function &#39;function_80486b9(*str)&#39;. Pages: 1 -->
<svg width="432pt" height="233pt"
 viewBox="0.00 0.00 432.00 233.00" xmlns="http://www.w3.org/2000/svg" xmlns:xlink="http://www.w3.org/1999/xlink">
<g id="graph0" class="graph" transform="scale(1 1) rotate(0) translate(4 229)">
<title>Control&#45;flow graph for function &#39;function_80486b9(*str)&#39;.</title>
<polygon fill="white" stroke="none" points="-4,4 -4,-229 428,-229 428,4 -4,4"/>
<text text-anchor="middle" x="212" y="-7.8" font-family="Times,serif" font-size="14.00">Control&#45;flow graph for function &#39;function_80486b9(*str)&#39;.</text>
<!-- Node0x2dd2120 -->
<g id="node1" class="node"><title>Node0x2dd2120</title>
<polygon fill="none" stroke="black" points="182.5,-186.5 182.5,-224.5 241.5,-224.5 241.5,-186.5 182.5,-186.5"/>
<text text-anchor="start" x="190.5" y="-209.3" font-family="Times,serif" font-size="14.00">entry:</text>
<text text-anchor="start" x="190.5" y="-194.3" font-family="Times,serif" font-size="14.00"> str</text>
</g>
<!-- Node0x2d895a0 -->
<g id="node2" class="node"><title>Node0x2d895a0</title>
<polygon fill="none" stroke="black" points="86.5,-96.5 86.5,-149.5 337.5,-149.5 337.5,-96.5 86.5,-96.5"/>
<text text-anchor="start" x="94.5" y="-134.3" font-family="Times,serif" font-size="14.00">found_char_pos = strchr(str, 10)</text>
<text text-anchor="start" x="94.5" y="-119.3" font-family="Times,serif" font-size="14.00"> *(found_char_pos) = 0</text>
<text text-anchor="start" x="94.5" y="-104.3" font-family="Times,serif" font-size="14.00"> return found_char_pos</text>
</g>
<!-- Node0x2dd2120&#45;&gt;Node0x2d895a0 -->
<g id="edge1" class="edge"><title>Node0x2dd2120&#45;&gt;Node0x2d895a0</title>
<path fill="none" stroke="black" d="M212,-186.233C212,-178.347 212,-168.835 212,-159.648"/>
<polygon fill="black" stroke="black" points="215.5,-159.517 212,-149.517 208.5,-159.517 215.5,-159.517"/>
</g>
<!-- Node0x2dbcaa0 -->
<g id="node3" class="node"><title>Node0x2dbcaa0</title>
<polygon fill="none" stroke="black" points="185,-23.5 185,-59.5 239,-59.5 239,-23.5 185,-23.5"/>
<text text-anchor="start" x="193" y="-37.8" font-family="Times,serif" font-size="14.00">exit:</text>
</g>
<!-- Node0x2d895a0&#45;&gt;Node0x2dbcaa0 -->
<g id="edge2" class="edge"><title>Node0x2d895a0&#45;&gt;Node0x2dbcaa0</title>
<path fill="none" stroke="black" d="M212,-96.4081C212,-87.9823 212,-78.5803 212,-70.0174"/>
<polygon fill="black" stroke="black" points="215.5,-69.7564 212,-59.7564 208.5,-69.7565 215.5,-69.7564"/>
</g>
</g>
</svg>
