<?xml version="1.0" encoding="UTF-8" standalone="no"?>
<!DOCTYPE svg PUBLIC "-//W3C//DTD SVG 1.1//EN"
 "http://www.w3.org/Graphics/SVG/1.1/DTD/svg11.dtd">
<!-- Generated by graphviz version 2.38.0 (20140413.2041)
 -->
<!-- Title: Control&#45;flow graph for function &#39;function_80483d4()&#39;. Pages: 1 -->
<svg width="496pt" height="486pt"
 viewBox="0.00 0.00 496.00 486.00" xmlns="http://www.w3.org/2000/svg" xmlns:xlink="http://www.w3.org/1999/xlink">
<g id="graph0" class="graph" transform="scale(1 1) rotate(0) translate(4 482)">
<title>Control&#45;flow graph for function &#39;function_80483d4()&#39;.</title>
<polygon fill="white" stroke="none" points="-4,4 -4,-482 492,-482 492,4 -4,4"/>
<text text-anchor="middle" x="244" y="-7.8" font-family="Times,serif" font-size="14.00">Control&#45;flow graph for function &#39;function_80483d4()&#39;.</text>
<!-- Node0x2d4f950 -->
<g id="node1" class="node"><title>Node0x2d4f950</title>
<polygon fill="none" stroke="black" points="214.5,-441.5 214.5,-477.5 273.5,-477.5 273.5,-441.5 214.5,-441.5"/>
<text text-anchor="start" x="222.5" y="-455.8" font-family="Times,serif" font-size="14.00">entry:</text>
</g>
<!-- Node0x2d54760 -->
<g id="node2" class="node"><title>Node0x2d54760</title>
<polygon fill="none" stroke="black" points="0,-367.5 0,-403.5 488,-403.5 488,-367.5 0,-367.5"/>
<text text-anchor="start" x="8" y="-381.8" font-family="Times,serif" font-size="14.00">result = *(IntToPtrCastExpr&lt;ptr&gt;((function_80484e0() + 7199)))</text>
</g>
<!-- Node0x2d4f950&#45;&gt;Node0x2d54760 -->
<g id="edge1" class="edge"><title>Node0x2d4f950&#45;&gt;Node0x2d54760</title>
<path fill="none" stroke="black" d="M244,-441.437C244,-433.307 244,-423.376 244,-414.205"/>
<polygon fill="black" stroke="black" points="247.5,-413.941 244,-403.941 240.5,-413.941 247.5,-413.941"/>
</g>
<!-- Node0x2cdbed0 -->
<g id="node3" class="node"><title>Node0x2cdbed0</title>
<polygon fill="none" stroke="black" points="182,-293.5 182,-329.5 306,-329.5 306,-293.5 182,-293.5"/>
<text text-anchor="start" x="190" y="-307.8" font-family="Times,serif" font-size="14.00">if (result != 0):</text>
</g>
<!-- Node0x2d54760&#45;&gt;Node0x2cdbed0 -->
<g id="edge2" class="edge"><title>Node0x2d54760&#45;&gt;Node0x2cdbed0</title>
<path fill="none" stroke="black" d="M244,-367.437C244,-359.307 244,-349.376 244,-340.205"/>
<polygon fill="black" stroke="black" points="247.5,-339.941 244,-329.941 240.5,-339.941 247.5,-339.941"/>
</g>
<!-- Node0x2d93f10 -->
<g id="node4" class="node"><title>Node0x2d93f10</title>
<polygon fill="none" stroke="black" points="127,-203.5 127,-241.5 255,-241.5 255,-203.5 127,-203.5"/>
<text text-anchor="start" x="135" y="-226.3" font-family="Times,serif" font-size="14.00">0x80483ed:</text>
<text text-anchor="start" x="135" y="-211.3" font-family="Times,serif" font-size="14.00"> __gmon_start()</text>
</g>
<!-- Node0x2cdbed0&#45;&gt;Node0x2d93f10 -->
<g id="edge3" class="edge"><title>Node0x2cdbed0&#45;&gt;Node0x2d93f10</title>
<path fill="none" stroke="black" d="M214.398,-293.14C208.047,-288.073 202.04,-281.986 198,-275 193.98,-268.048 191.909,-259.705 190.918,-251.779"/>
<polygon fill="black" stroke="black" points="194.404,-251.461 190.164,-241.751 187.423,-251.986 194.404,-251.461"/>
<text text-anchor="middle" x="237.5" y="-263.8" font-family="Times,serif" font-size="14.00">result != 0</text>
</g>
<!-- Node0x2db0400 -->
<g id="node5" class="node"><title>Node0x2db0400</title>
<polygon fill="none" stroke="black" points="203.5,-97.5 203.5,-165.5 316.5,-165.5 316.5,-97.5 203.5,-97.5"/>
<text text-anchor="start" x="211.5" y="-150.3" font-family="Times,serif" font-size="14.00">0x80483f2:</text>
<text text-anchor="start" x="211.5" y="-135.3" font-family="Times,serif" font-size="14.00"> v1</text>
<text text-anchor="start" x="211.5" y="-120.3" font-family="Times,serif" font-size="14.00"> g2 = v1</text>
<text text-anchor="start" x="211.5" y="-105.3" font-family="Times,serif" font-size="14.00"> return result</text>
</g>
<!-- Node0x2cdbed0&#45;&gt;Node0x2db0400 -->
<g id="edge4" class="edge"><title>Node0x2cdbed0&#45;&gt;Node0x2db0400</title>
<path fill="none" stroke="black" d="M264.828,-293.238C269.76,-287.952 274.353,-281.735 277,-275 289.513,-243.16 283.712,-204.48 275.644,-175.457"/>
<polygon fill="black" stroke="black" points="278.924,-174.21 272.721,-165.621 272.214,-176.204 278.924,-174.21"/>
<text text-anchor="middle" x="326.5" y="-218.8" font-family="Times,serif" font-size="14.00">result == 0</text>
</g>
<!-- Node0x2d93f10&#45;&gt;Node0x2db0400 -->
<g id="edge5" class="edge"><title>Node0x2d93f10&#45;&gt;Node0x2db0400</title>
<path fill="none" stroke="black" d="M204.963,-203.49C211.679,-194.828 220.026,-184.061 228.173,-173.552"/>
<polygon fill="black" stroke="black" points="230.973,-175.652 234.335,-165.605 225.441,-171.363 230.973,-175.652"/>
</g>
<!-- Node0x2d67cc0 -->
<g id="node6" class="node"><title>Node0x2d67cc0</title>
<polygon fill="none" stroke="black" points="233,-23.5 233,-59.5 287,-59.5 287,-23.5 233,-23.5"/>
<text text-anchor="start" x="241" y="-37.8" font-family="Times,serif" font-size="14.00">exit:</text>
</g>
<!-- Node0x2db0400&#45;&gt;Node0x2d67cc0 -->
<g id="edge6" class="edge"><title>Node0x2db0400&#45;&gt;Node0x2d67cc0</title>
<path fill="none" stroke="black" d="M260,-97.4817C260,-88.3281 260,-78.4972 260,-69.7155"/>
<polygon fill="black" stroke="black" points="263.5,-69.6402 260,-59.6402 256.5,-69.6403 263.5,-69.6402"/>
</g>
</g>
</svg>
