<?xml version="1.0" encoding="UTF-8" standalone="no"?>
<!DOCTYPE svg PUBLIC "-//W3C//DTD SVG 1.1//EN"
 "http://www.w3.org/Graphics/SVG/1.1/DTD/svg11.dtd">
<!-- Generated by graphviz version 2.38.0 (20140413.2041)
 -->
<!-- Title: Control&#45;flow graph for function &#39;function_80484f0(a1)&#39;. Pages: 1 -->
<svg width="418pt" height="218pt"
 viewBox="0.00 0.00 418.00 218.00" xmlns="http://www.w3.org/2000/svg" xmlns:xlink="http://www.w3.org/1999/xlink">
<g id="graph0" class="graph" transform="scale(1 1) rotate(0) translate(4 214)">
<title>Control&#45;flow graph for function &#39;function_80484f0(a1)&#39;.</title>
<polygon fill="white" stroke="none" points="-4,4 -4,-214 414,-214 414,4 -4,4"/>
<text text-anchor="middle" x="205" y="-7.8" font-family="Times,serif" font-size="14.00">Control&#45;flow graph for function &#39;function_80484f0(a1)&#39;.</text>
<!-- Node0x2d66e50 -->
<g id="node1" class="node"><title>Node0x2d66e50</title>
<polygon fill="none" stroke="black" points="175.5,-171.5 175.5,-209.5 234.5,-209.5 234.5,-171.5 175.5,-171.5"/>
<text text-anchor="start" x="183.5" y="-194.3" font-family="Times,serif" font-size="14.00">entry:</text>
<text text-anchor="start" x="183.5" y="-179.3" font-family="Times,serif" font-size="14.00"> a1</text>
</g>
<!-- Node0x2dab4f0 -->
<g id="node2" class="node"><title>Node0x2dab4f0</title>
<polygon fill="none" stroke="black" points="156,-96.5 156,-134.5 254,-134.5 254,-96.5 156,-96.5"/>
<text text-anchor="start" x="164" y="-119.3" font-family="Times,serif" font-size="14.00">0x80484f0:</text>
<text text-anchor="start" x="164" y="-104.3" font-family="Times,serif" font-size="14.00"> return 3</text>
</g>
<!-- Node0x2d66e50&#45;&gt;Node0x2dab4f0 -->
<g id="edge1" class="edge"><title>Node0x2d66e50&#45;&gt;Node0x2dab4f0</title>
<path fill="none" stroke="black" d="M205,-171.455C205,-163.383 205,-153.676 205,-144.682"/>
<polygon fill="black" stroke="black" points="208.5,-144.59 205,-134.59 201.5,-144.59 208.5,-144.59"/>
</g>
<!-- Node0x2d8f400 -->
<g id="node3" class="node"><title>Node0x2d8f400</title>
<polygon fill="none" stroke="black" points="178,-23.5 178,-59.5 232,-59.5 232,-23.5 178,-23.5"/>
<text text-anchor="start" x="186" y="-37.8" font-family="Times,serif" font-size="14.00">exit:</text>
</g>
<!-- Node0x2dab4f0&#45;&gt;Node0x2d8f400 -->
<g id="edge2" class="edge"><title>Node0x2dab4f0&#45;&gt;Node0x2d8f400</title>
<path fill="none" stroke="black" d="M205,-96.3314C205,-88.394 205,-78.9095 205,-70.1285"/>
<polygon fill="black" stroke="black" points="208.5,-69.9177 205,-59.9177 201.5,-69.9177 208.5,-69.9177"/>
</g>
</g>
</svg>
