<?xml version="1.0" encoding="UTF-8" standalone="no"?>
<!DOCTYPE svg PUBLIC "-//W3C//DTD SVG 1.1//EN"
 "http://www.w3.org/Graphics/SVG/1.1/DTD/svg11.dtd">
<!-- Generated by graphviz version 2.38.0 (20140413.2041)
 -->
<!-- Title: Call graph of the module. Pages: 1 -->
<svg width="1964pt" height="214pt"
 viewBox="0.00 0.00 1963.50 214.00" xmlns="http://www.w3.org/2000/svg" xmlns:xlink="http://www.w3.org/1999/xlink">
<g id="graph0" class="graph" transform="scale(1 1) rotate(0) translate(4 210)">
<title>Call graph of the module.</title>
<polygon fill="white" stroke="none" points="-4,4 -4,-210 1959.5,-210 1959.5,4 -4,4"/>
<text text-anchor="middle" x="977.75" y="-7.8" font-family="Times,serif" font-size="14.00">Call graph of the module.</text>
<!-- Node_function_80483d4 -->
<g id="node1" class="node"><title>Node_function_80483d4</title>
<polygon fill="none" stroke="black" points="217.5,-96.5 217.5,-132.5 363.5,-132.5 363.5,-96.5 217.5,-96.5"/>
<text text-anchor="middle" x="290.5" y="-110.8" font-family="Times,serif" font-size="14.00">function_80483d4</text>
</g>
<!-- Node_function_80484e0 -->
<g id="node5" class="node"><title>Node_function_80484e0</title>
<polygon fill="none" stroke="black" points="53.5,-23.5 53.5,-59.5 199.5,-59.5 199.5,-23.5 53.5,-23.5"/>
<text text-anchor="middle" x="126.5" y="-37.8" font-family="Times,serif" font-size="14.00">function_80484e0</text>
</g>
<!-- Node_function_80483d4&#45;&gt;Node_function_80484e0 -->
<g id="edge1" class="edge"><title>Node_function_80483d4&#45;&gt;Node_function_80484e0</title>
<path fill="none" stroke="black" d="M251.218,-96.4937C228.463,-86.6426 199.62,-74.1555 175.404,-63.6718"/>
<polygon fill="black" stroke="black" points="176.597,-60.3746 166.03,-59.6136 173.816,-66.7985 176.597,-60.3746"/>
</g>
<!-- Node___gmon_start -->
<g id="node25" class="node"><title>Node___gmon_start</title>
<polygon fill="none" stroke="#7f7f7f" points="234,-23.5 234,-59.5 347,-59.5 347,-23.5 234,-23.5"/>
<text text-anchor="middle" x="290.5" y="-37.8" font-family="Times,serif" font-size="14.00" fill="#7f7f7f">__gmon_start</text>
</g>
<!-- Node_function_80483d4&#45;&gt;Node___gmon_start -->
<g id="edge2" class="edge"><title>Node_function_80483d4&#45;&gt;Node___gmon_start</title>
<path fill="none" stroke="black" d="M290.5,-96.3129C290.5,-88.2895 290.5,-78.5475 290.5,-69.5691"/>
<polygon fill="black" stroke="black" points="294,-69.5288 290.5,-59.5288 287,-69.5289 294,-69.5288"/>
</g>
<!-- Node_function_8048400 -->
<g id="node2" class="node"><title>Node_function_8048400</title>
<polygon fill="none" stroke="black" points="252.5,-169.5 252.5,-205.5 398.5,-205.5 398.5,-169.5 252.5,-169.5"/>
<text text-anchor="middle" x="325.5" y="-183.8" font-family="Times,serif" font-size="14.00">function_8048400</text>
</g>
<!-- Node_function_80484a0 -->
<g id="node3" class="node"><title>Node_function_80484a0</title>
<polygon fill="none" stroke="black" points="462.5,-169.5 462.5,-205.5 608.5,-205.5 608.5,-169.5 462.5,-169.5"/>
<text text-anchor="middle" x="535.5" y="-183.8" font-family="Times,serif" font-size="14.00">function_80484a0</text>
</g>
<!-- Node_unknown_8049ffc -->
<g id="node26" class="node"><title>Node_unknown_8049ffc</title>
<polygon fill="none" stroke="#7f7f7f" points="463.5,-96.5 463.5,-132.5 607.5,-132.5 607.5,-96.5 463.5,-96.5"/>
<text text-anchor="middle" x="535.5" y="-110.8" font-family="Times,serif" font-size="14.00" fill="#7f7f7f">unknown_8049ffc</text>
</g>
<!-- Node_function_80484a0&#45;&gt;Node_unknown_8049ffc -->
<g id="edge3" class="edge"><title>Node_function_80484a0&#45;&gt;Node_unknown_8049ffc</title>
<path fill="none" stroke="black" d="M535.5,-169.313C535.5,-161.289 535.5,-151.547 535.5,-142.569"/>
<polygon fill="black" stroke="black" points="539,-142.529 535.5,-132.529 532,-142.529 539,-142.529"/>
</g>
<!-- Node_entry_point -->
<g id="node4" class="node"><title>Node_entry_point</title>
<polygon fill="none" stroke="black" points="648,-169.5 648,-205.5 747,-205.5 747,-169.5 648,-169.5"/>
<text text-anchor="middle" x="697.5" y="-183.8" font-family="Times,serif" font-size="14.00">entry_point</text>
</g>
<!-- Node___libc_start_main -->
<g id="node24" class="node"><title>Node___libc_start_main</title>
<polygon fill="none" stroke="#7f7f7f" points="626,-96.5 626,-132.5 769,-132.5 769,-96.5 626,-96.5"/>
<text text-anchor="middle" x="697.5" y="-110.8" font-family="Times,serif" font-size="14.00" fill="#7f7f7f">__libc_start_main</text>
</g>
<!-- Node_entry_point&#45;&gt;Node___libc_start_main -->
<g id="edge4" class="edge"><title>Node_entry_point&#45;&gt;Node___libc_start_main</title>
<path fill="none" stroke="black" d="M697.5,-169.313C697.5,-161.289 697.5,-151.547 697.5,-142.569"/>
<polygon fill="black" stroke="black" points="701,-142.529 697.5,-132.529 694,-142.529 701,-142.529"/>
</g>
<!-- Node_function_80484f0 -->
<g id="node6" class="node"><title>Node_function_80484f0</title>
<polygon fill="none" stroke="black" points="884,-169.5 884,-205.5 1027,-205.5 1027,-169.5 884,-169.5"/>
<text text-anchor="middle" x="955.5" y="-183.8" font-family="Times,serif" font-size="14.00">function_80484f0</text>
</g>
<!-- Node_function_8048520 -->
<g id="node7" class="node"><title>Node_function_8048520</title>
<polygon fill="none" stroke="black" points="1202.5,-169.5 1202.5,-205.5 1348.5,-205.5 1348.5,-169.5 1202.5,-169.5"/>
<text text-anchor="middle" x="1275.5" y="-183.8" font-family="Times,serif" font-size="14.00">function_8048520</text>
</g>
<!-- Node_function_80485ab -->
<g id="node8" class="node"><title>Node_function_80485ab</title>
<polygon fill="none" stroke="black" points="1444.5,-169.5 1444.5,-205.5 1590.5,-205.5 1590.5,-169.5 1444.5,-169.5"/>
<text text-anchor="middle" x="1517.5" y="-183.8" font-family="Times,serif" font-size="14.00">function_80485ab</text>
</g>
<!-- Node_function_80486b9 -->
<g id="node9" class="node"><title>Node_function_80486b9</title>
<polygon fill="none" stroke="black" points="787.5,-96.5 787.5,-132.5 933.5,-132.5 933.5,-96.5 787.5,-96.5"/>
<text text-anchor="middle" x="860.5" y="-110.8" font-family="Times,serif" font-size="14.00">function_80486b9</text>
</g>
<!-- Node_function_80485ab&#45;&gt;Node_function_80486b9 -->
<g id="edge5" class="edge"><title>Node_function_80485ab&#45;&gt;Node_function_80486b9</title>
<path fill="none" stroke="black" d="M1444.26,-178.14C1417.03,-175.124 1385.87,-171.781 1357.5,-169 1176.49,-151.252 1127.32,-160.049 943.721,-133.081"/>
<polygon fill="black" stroke="black" points="944.141,-129.605 933.736,-131.599 943.113,-136.529 944.141,-129.605"/>
</g>
<!-- Node_function_80486db -->
<g id="node10" class="node"><title>Node_function_80486db</title>
<polygon fill="none" stroke="black" points="951.5,-96.5 951.5,-132.5 1097.5,-132.5 1097.5,-96.5 951.5,-96.5"/>
<text text-anchor="middle" x="1024.5" y="-110.8" font-family="Times,serif" font-size="14.00">function_80486db</text>
</g>
<!-- Node_function_80485ab&#45;&gt;Node_function_80486db -->
<g id="edge6" class="edge"><title>Node_function_80485ab&#45;&gt;Node_function_80486db</title>
<path fill="none" stroke="black" d="M1444.48,-178.799C1364.26,-169.932 1231.46,-154.056 1107.79,-133.151"/>
<polygon fill="black" stroke="black" points="1108.21,-129.672 1097.76,-131.442 1107.03,-136.573 1108.21,-129.672"/>
</g>
<!-- Node_function_8048738 -->
<g id="node11" class="node"><title>Node_function_8048738</title>
<polygon fill="none" stroke="black" points="1115.5,-96.5 1115.5,-132.5 1261.5,-132.5 1261.5,-96.5 1115.5,-96.5"/>
<text text-anchor="middle" x="1188.5" y="-110.8" font-family="Times,serif" font-size="14.00">function_8048738</text>
</g>
<!-- Node_function_80485ab&#45;&gt;Node_function_8048738 -->
<g id="edge7" class="edge"><title>Node_function_80485ab&#45;&gt;Node_function_8048738</title>
<path fill="none" stroke="black" d="M1444.48,-170.743C1393.35,-159.708 1324.93,-144.943 1271.69,-133.453"/>
<polygon fill="black" stroke="black" points="1272.11,-129.963 1261.6,-131.274 1270.63,-136.805 1272.11,-129.963"/>
</g>
<!-- Node_function_80487b2 -->
<g id="node12" class="node"><title>Node_function_80487b2</title>
<polygon fill="none" stroke="black" points="1279.5,-96.5 1279.5,-132.5 1425.5,-132.5 1425.5,-96.5 1279.5,-96.5"/>
<text text-anchor="middle" x="1352.5" y="-110.8" font-family="Times,serif" font-size="14.00">function_80487b2</text>
</g>
<!-- Node_function_80485ab&#45;&gt;Node_function_80487b2 -->
<g id="edge8" class="edge"><title>Node_function_80485ab&#45;&gt;Node_function_80487b2</title>
<path fill="none" stroke="black" d="M1477.98,-169.494C1455.09,-159.643 1426.07,-147.156 1401.7,-136.672"/>
<polygon fill="black" stroke="black" points="1402.84,-133.351 1392.27,-132.614 1400.07,-139.781 1402.84,-133.351"/>
</g>
<!-- Node_strcmp -->
<g id="node16" class="node"><title>Node_strcmp</title>
<polygon fill="none" stroke="#7f7f7f" points="1443.5,-96.5 1443.5,-132.5 1511.5,-132.5 1511.5,-96.5 1443.5,-96.5"/>
<text text-anchor="middle" x="1477.5" y="-110.8" font-family="Times,serif" font-size="14.00" fill="#7f7f7f">strcmp</text>
</g>
<!-- Node_function_80485ab&#45;&gt;Node_strcmp -->
<g id="edge9" class="edge"><title>Node_function_80485ab&#45;&gt;Node_strcmp</title>
<path fill="none" stroke="black" d="M1507.82,-169.313C1503.1,-160.941 1497.33,-150.697 1492.09,-141.403"/>
<polygon fill="black" stroke="black" points="1495.05,-139.523 1487.09,-132.529 1488.95,-142.959 1495.05,-139.523"/>
</g>
<!-- Node_printf -->
<g id="node17" class="node"><title>Node_printf</title>
<polygon fill="none" stroke="#7f7f7f" points="1530,-96.5 1530,-132.5 1587,-132.5 1587,-96.5 1530,-96.5"/>
<text text-anchor="middle" x="1558.5" y="-110.8" font-family="Times,serif" font-size="14.00" fill="#7f7f7f">printf</text>
</g>
<!-- Node_function_80485ab&#45;&gt;Node_printf -->
<g id="edge10" class="edge"><title>Node_function_80485ab&#45;&gt;Node_printf</title>
<path fill="none" stroke="black" d="M1527.42,-169.313C1532.26,-160.941 1538.17,-150.697 1543.54,-141.403"/>
<polygon fill="black" stroke="black" points="1546.7,-142.939 1548.67,-132.529 1540.63,-139.438 1546.7,-142.939"/>
</g>
<!-- Node_fgets -->
<g id="node18" class="node"><title>Node_fgets</title>
<polygon fill="none" stroke="#7f7f7f" points="1605.5,-96.5 1605.5,-132.5 1659.5,-132.5 1659.5,-96.5 1605.5,-96.5"/>
<text text-anchor="middle" x="1632.5" y="-110.8" font-family="Times,serif" font-size="14.00" fill="#7f7f7f">fgets</text>
</g>
<!-- Node_function_80485ab&#45;&gt;Node_fgets -->
<g id="edge11" class="edge"><title>Node_function_80485ab&#45;&gt;Node_fgets</title>
<path fill="none" stroke="black" d="M1545.05,-169.494C1560.41,-160.009 1579.73,-148.081 1596.3,-137.85"/>
<polygon fill="black" stroke="black" points="1598.51,-140.599 1605.18,-132.368 1594.83,-134.643 1598.51,-140.599"/>
</g>
<!-- Node___stack_chk_fail -->
<g id="node19" class="node"><title>Node___stack_chk_fail</title>
<polygon fill="none" stroke="#7f7f7f" points="1677.5,-96.5 1677.5,-132.5 1811.5,-132.5 1811.5,-96.5 1677.5,-96.5"/>
<text text-anchor="middle" x="1744.5" y="-110.8" font-family="Times,serif" font-size="14.00" fill="#7f7f7f">__stack_chk_fail</text>
</g>
<!-- Node_function_80485ab&#45;&gt;Node___stack_chk_fail -->
<g id="edge12" class="edge"><title>Node_function_80485ab&#45;&gt;Node___stack_chk_fail</title>
<path fill="none" stroke="black" d="M1571.87,-169.494C1604.34,-159.338 1645.77,-146.379 1679.91,-135.704"/>
<polygon fill="black" stroke="black" points="1681.29,-138.939 1689.78,-132.614 1679.2,-132.258 1681.29,-138.939"/>
</g>
<!-- Node_puts -->
<g id="node20" class="node"><title>Node_puts</title>
<polygon fill="none" stroke="#7f7f7f" points="1829.5,-96.5 1829.5,-132.5 1883.5,-132.5 1883.5,-96.5 1829.5,-96.5"/>
<text text-anchor="middle" x="1856.5" y="-110.8" font-family="Times,serif" font-size="14.00" fill="#7f7f7f">puts</text>
</g>
<!-- Node_function_80485ab&#45;&gt;Node_puts -->
<g id="edge13" class="edge"><title>Node_function_80485ab&#45;&gt;Node_puts</title>
<path fill="none" stroke="black" d="M1590.78,-170.675C1593.72,-170.099 1596.64,-169.538 1599.5,-169 1694.15,-151.202 1723.74,-162.301 1819.53,-132.81"/>
<polygon fill="black" stroke="black" points="1820.83,-136.067 1829.32,-129.726 1818.73,-129.391 1820.83,-136.067"/>
</g>
<!-- Node_exit -->
<g id="node21" class="node"><title>Node_exit</title>
<polygon fill="none" stroke="#7f7f7f" points="1901.5,-96.5 1901.5,-132.5 1955.5,-132.5 1955.5,-96.5 1901.5,-96.5"/>
<text text-anchor="middle" x="1928.5" y="-110.8" font-family="Times,serif" font-size="14.00" fill="#7f7f7f">exit</text>
</g>
<!-- Node_function_80485ab&#45;&gt;Node_exit -->
<g id="edge14" class="edge"><title>Node_function_80485ab&#45;&gt;Node_exit</title>
<path fill="none" stroke="black" d="M1590.76,-170.532C1593.71,-169.995 1596.63,-169.482 1599.5,-169 1725.73,-147.817 1764.78,-169.094 1891.66,-132.687"/>
<polygon fill="black" stroke="black" points="1892.75,-136.017 1901.36,-129.844 1890.78,-129.3 1892.75,-136.017"/>
</g>
<!-- Node_strchr -->
<g id="node22" class="node"><title>Node_strchr</title>
<polygon fill="none" stroke="#7f7f7f" points="830,-23.5 830,-59.5 891,-59.5 891,-23.5 830,-23.5"/>
<text text-anchor="middle" x="860.5" y="-37.8" font-family="Times,serif" font-size="14.00" fill="#7f7f7f">strchr</text>
</g>
<!-- Node_function_80486b9&#45;&gt;Node_strchr -->
<g id="edge15" class="edge"><title>Node_function_80486b9&#45;&gt;Node_strchr</title>
<path fill="none" stroke="black" d="M860.5,-96.3129C860.5,-88.2895 860.5,-78.5475 860.5,-69.5691"/>
<polygon fill="black" stroke="black" points="864,-69.5288 860.5,-59.5288 857,-69.5289 864,-69.5288"/>
</g>
<!-- Node_strlen -->
<g id="node23" class="node"><title>Node_strlen</title>
<polygon fill="none" stroke="#7f7f7f" points="995,-23.5 995,-59.5 1054,-59.5 1054,-23.5 995,-23.5"/>
<text text-anchor="middle" x="1024.5" y="-37.8" font-family="Times,serif" font-size="14.00" fill="#7f7f7f">strlen</text>
</g>
<!-- Node_function_80486db&#45;&gt;Node_strlen -->
<g id="edge16" class="edge"><title>Node_function_80486db&#45;&gt;Node_strlen</title>
<path fill="none" stroke="black" d="M1024.5,-96.3129C1024.5,-88.2895 1024.5,-78.5475 1024.5,-69.5691"/>
<polygon fill="black" stroke="black" points="1028,-69.5288 1024.5,-59.5288 1021,-69.5289 1028,-69.5288"/>
</g>
<!-- Node_function_80487f0 -->
<g id="node13" class="node"><title>Node_function_80487f0</title>
<polygon fill="none" stroke="red" points="0,-169.5 0,-205.5 143,-205.5 143,-169.5 0,-169.5"/>
<text text-anchor="middle" x="71.5" y="-183.8" font-family="Times,serif" font-size="14.00" fill="red">function_80487f0</text>
</g>
<!-- Node_function_80487f0&#45;&gt;Node_function_80483d4 -->
<g id="edge17" class="edge"><title>Node_function_80487f0&#45;&gt;Node_function_80483d4</title>
<path fill="none" stroke="black" d="M123.956,-169.494C155.283,-159.338 195.252,-146.379 228.182,-135.704"/>
<polygon fill="black" stroke="black" points="229.28,-139.027 237.713,-132.614 227.121,-132.368 229.28,-139.027"/>
</g>
<!-- Node_function_80487f0&#45;&gt;Node_function_80484e0 -->
<g id="edge18" class="edge"><title>Node_function_80487f0&#45;&gt;Node_function_80484e0</title>
<path fill="none" stroke="black" d="M58.8067,-169.341C46.5569,-150.508 31.6164,-119.789 44.5,-96 51.5375,-83.0055 63.252,-72.6669 75.6553,-64.6788"/>
<polygon fill="black" stroke="black" points="77.508,-67.6491 84.3033,-59.5204 73.9221,-61.6373 77.508,-67.6491"/>
</g>
<!-- Node_function_804884d -->
<g id="node14" class="node"><title>Node_function_804884d</title>
<polygon fill="none" stroke="black" points="1608.5,-169.5 1608.5,-205.5 1754.5,-205.5 1754.5,-169.5 1608.5,-169.5"/>
<text text-anchor="middle" x="1681.5" y="-183.8" font-family="Times,serif" font-size="14.00">function_804884d</text>
</g>
<!-- Node_function_8048854 -->
<g id="node15" class="node"><title>Node_function_8048854</title>
<polygon fill="none" stroke="black" points="53.5,-96.5 53.5,-132.5 199.5,-132.5 199.5,-96.5 53.5,-96.5"/>
<text text-anchor="middle" x="126.5" y="-110.8" font-family="Times,serif" font-size="14.00">function_8048854</text>
</g>
<!-- Node_function_8048854&#45;&gt;Node_function_80484e0 -->
<g id="edge19" class="edge"><title>Node_function_8048854&#45;&gt;Node_function_80484e0</title>
<path fill="none" stroke="black" d="M126.5,-96.3129C126.5,-88.2895 126.5,-78.5475 126.5,-69.5691"/>
<polygon fill="black" stroke="black" points="130,-69.5288 126.5,-59.5288 123,-69.5289 130,-69.5288"/>
</g>
</g>
</svg>
