<?xml version="1.0" encoding="UTF-8" standalone="no"?>
<!DOCTYPE svg PUBLIC "-//W3C//DTD SVG 1.1//EN"
 "http://www.w3.org/Graphics/SVG/1.1/DTD/svg11.dtd">
<!-- Generated by graphviz version 2.38.0 (20140413.2041)
 -->
<!-- Title: Control&#45;flow graph for function &#39;function_804884d(a1)&#39;. Pages: 1 -->
<svg width="421pt" height="218pt"
 viewBox="0.00 0.00 421.00 218.00" xmlns="http://www.w3.org/2000/svg" xmlns:xlink="http://www.w3.org/1999/xlink">
<g id="graph0" class="graph" transform="scale(1 1) rotate(0) translate(4 214)">
<title>Control&#45;flow graph for function &#39;function_804884d(a1)&#39;.</title>
<polygon fill="white" stroke="none" points="-4,4 -4,-214 417,-214 417,4 -4,4"/>
<text text-anchor="middle" x="206.5" y="-7.8" font-family="Times,serif" font-size="14.00">Control&#45;flow graph for function &#39;function_804884d(a1)&#39;.</text>
<!-- Node0x2db1210 -->
<g id="node1" class="node"><title>Node0x2db1210</title>
<polygon fill="none" stroke="black" points="177,-171.5 177,-209.5 236,-209.5 236,-171.5 177,-171.5"/>
<text text-anchor="start" x="185" y="-194.3" font-family="Times,serif" font-size="14.00">entry:</text>
<text text-anchor="start" x="185" y="-179.3" font-family="Times,serif" font-size="14.00"> a1</text>
</g>
<!-- Node0x2cf5fe0 -->
<g id="node2" class="node"><title>Node0x2cf5fe0</title>
<polygon fill="none" stroke="black" points="156,-96.5 156,-134.5 257,-134.5 257,-96.5 156,-96.5"/>
<text text-anchor="start" x="164" y="-119.3" font-family="Times,serif" font-size="14.00">0x804884d:</text>
<text text-anchor="start" x="164" y="-104.3" font-family="Times,serif" font-size="14.00"> return g3</text>
</g>
<!-- Node0x2db1210&#45;&gt;Node0x2cf5fe0 -->
<g id="edge1" class="edge"><title>Node0x2db1210&#45;&gt;Node0x2cf5fe0</title>
<path fill="none" stroke="black" d="M206.5,-171.455C206.5,-163.383 206.5,-153.676 206.5,-144.682"/>
<polygon fill="black" stroke="black" points="210,-144.59 206.5,-134.59 203,-144.59 210,-144.59"/>
</g>
<!-- Node0x2cf5f80 -->
<g id="node3" class="node"><title>Node0x2cf5f80</title>
<polygon fill="none" stroke="black" points="179.5,-23.5 179.5,-59.5 233.5,-59.5 233.5,-23.5 179.5,-23.5"/>
<text text-anchor="start" x="187.5" y="-37.8" font-family="Times,serif" font-size="14.00">exit:</text>
</g>
<!-- Node0x2cf5fe0&#45;&gt;Node0x2cf5f80 -->
<g id="edge2" class="edge"><title>Node0x2cf5fe0&#45;&gt;Node0x2cf5f80</title>
<path fill="none" stroke="black" d="M206.5,-96.3314C206.5,-88.394 206.5,-78.9095 206.5,-70.1285"/>
<polygon fill="black" stroke="black" points="210,-69.9177 206.5,-59.9177 203,-69.9177 210,-69.9177"/>
</g>
</g>
</svg>
