<?xml version="1.0" encoding="UTF-8" standalone="no"?>
<!DOCTYPE svg PUBLIC "-//W3C//DTD SVG 1.1//EN"
 "http://www.w3.org/Graphics/SVG/1.1/DTD/svg11.dtd">
<!-- Generated by graphviz version 2.38.0 (20140413.2041)
 -->
<!-- Title: Control&#45;flow graph for function &#39;function_80487f0(a1, a2, a3)&#39;. Pages: 1 -->
<svg width="834pt" height="721pt"
 viewBox="0.00 0.00 834.00 721.00" xmlns="http://www.w3.org/2000/svg" xmlns:xlink="http://www.w3.org/1999/xlink">
<g id="graph0" class="graph" transform="scale(1 1) rotate(0) translate(4 717)">
<title>Control&#45;flow graph for function &#39;function_80487f0(a1, a2, a3)&#39;.</title>
<polygon fill="white" stroke="none" points="-4,4 -4,-717 830,-717 830,4 -4,4"/>
<text text-anchor="middle" x="413" y="-7.8" font-family="Times,serif" font-size="14.00">Control&#45;flow graph for function &#39;function_80487f0(a1, a2, a3)&#39;.</text>
<!-- Node0x2db12d0 -->
<g id="node1" class="node"><title>Node0x2db12d0</title>
<polygon fill="none" stroke="black" points="149,-644.5 149,-712.5 208,-712.5 208,-644.5 149,-644.5"/>
<text text-anchor="start" x="157" y="-697.3" font-family="Times,serif" font-size="14.00">entry:</text>
<text text-anchor="start" x="157" y="-682.3" font-family="Times,serif" font-size="14.00"> a1</text>
<text text-anchor="start" x="157" y="-667.3" font-family="Times,serif" font-size="14.00"> a2</text>
<text text-anchor="start" x="157" y="-652.3" font-family="Times,serif" font-size="14.00"> a3</text>
</g>
<!-- Node0x2dd1060 -->
<g id="node2" class="node"><title>Node0x2dd1060</title>
<polygon fill="none" stroke="black" points="73.5,-493.5 73.5,-606.5 283.5,-606.5 283.5,-493.5 73.5,-493.5"/>
<text text-anchor="start" x="81.5" y="-591.3" font-family="Times,serif" font-size="14.00">v1 = function_80484e0()</text>
<text text-anchor="start" x="81.5" y="-576.3" font-family="Times,serif" font-size="14.00"> g1 = a1</text>
<text text-anchor="start" x="81.5" y="-561.3" font-family="Times,serif" font-size="14.00"> function_80483d4()</text>
<text text-anchor="start" x="81.5" y="-546.3" font-family="Times,serif" font-size="14.00"> v2 = g2</text>
<text text-anchor="start" x="81.5" y="-531.3" font-family="Times,serif" font-size="14.00"> result = (v2 &#45; 248)</text>
<text text-anchor="start" x="81.5" y="-516.3" font-family="Times,serif" font-size="14.00"> v3 = ((v1 + 5907) &#45; result)</text>
<text text-anchor="start" x="81.5" y="-501.3" font-family="Times,serif" font-size="14.00"> g3 = (v3 / 4)</text>
</g>
<!-- Node0x2db12d0&#45;&gt;Node0x2dd1060 -->
<g id="edge1" class="edge"><title>Node0x2db12d0&#45;&gt;Node0x2dd1060</title>
<path fill="none" stroke="black" d="M178.5,-644.264C178.5,-635.679 178.5,-626.135 178.5,-616.521"/>
<polygon fill="black" stroke="black" points="182,-616.513 178.5,-606.514 175,-616.514 182,-616.513"/>
</g>
<!-- Node0x2d8b240 -->
<g id="node3" class="node"><title>Node0x2d8b240</title>
<polygon fill="none" stroke="black" points="132,-419.5 132,-455.5 225,-455.5 225,-419.5 132,-419.5"/>
<text text-anchor="start" x="140" y="-433.8" font-family="Times,serif" font-size="14.00">if (v3 &lt; 4):</text>
</g>
<!-- Node0x2dd1060&#45;&gt;Node0x2d8b240 -->
<g id="edge2" class="edge"><title>Node0x2dd1060&#45;&gt;Node0x2d8b240</title>
<path fill="none" stroke="black" d="M178.5,-493.426C178.5,-483.86 178.5,-474.307 178.5,-465.913"/>
<polygon fill="black" stroke="black" points="182,-465.644 178.5,-455.644 175,-465.644 182,-465.644"/>
</g>
<!-- Node0x2d095b0 -->
<g id="node4" class="node"><title>Node0x2d095b0</title>
<polygon fill="none" stroke="black" points="0,-257.5 0,-295.5 113,-295.5 113,-257.5 0,-257.5"/>
<text text-anchor="start" x="8" y="-280.3" font-family="Times,serif" font-size="14.00">0x8048845:</text>
<text text-anchor="start" x="8" y="-265.3" font-family="Times,serif" font-size="14.00"> return result</text>
</g>
<!-- Node0x2d8b240&#45;&gt;Node0x2d095b0 -->
<g id="edge3" class="edge"><title>Node0x2d8b240&#45;&gt;Node0x2d095b0</title>
<path fill="none" stroke="black" d="M165.444,-419.484C144.227,-391.833 102.106,-336.937 76.9073,-304.096"/>
<polygon fill="black" stroke="black" points="79.4486,-301.659 70.5843,-295.856 73.895,-305.92 79.4486,-301.659"/>
<text text-anchor="middle" x="174.5" y="-389.8" font-family="Times,serif" font-size="14.00">v3 &lt; 4</text>
</g>
<!-- Node0x2d88b40 -->
<g id="node5" class="node"><title>Node0x2d88b40</title>
<polygon fill="none" stroke="black" points="147,-314.5 147,-367.5 676,-367.5 676,-314.5 147,-314.5"/>
<text text-anchor="start" x="155" y="-352.3" font-family="Times,serif" font-size="14.00">0x8048820:</text>
<text text-anchor="start" x="155" y="-337.3" font-family="Times,serif" font-size="14.00"> IntToPtrCastExpr&lt;ptr&gt;(*(IntToPtrCastExpr&lt;ptr&gt;((v2 &#45; 248))))(a2, a3)</text>
<text text-anchor="start" x="155" y="-322.3" font-family="Times,serif" font-size="14.00"> v4 = 1</text>
</g>
<!-- Node0x2d8b240&#45;&gt;Node0x2d88b40 -->
<g id="edge4" class="edge"><title>Node0x2d8b240&#45;&gt;Node0x2d88b40</title>
<path fill="none" stroke="black" d="M220.425,-419.496C253.278,-406.172 299.781,-387.311 338.685,-371.532"/>
<polygon fill="black" stroke="black" points="340.447,-374.594 348.399,-367.593 337.817,-368.108 340.447,-374.594"/>
<text text-anchor="middle" x="332.5" y="-389.8" font-family="Times,serif" font-size="14.00">v3 &gt;= 4</text>
</g>
<!-- Node0x2d59100 -->
<g id="node6" class="node"><title>Node0x2d59100</title>
<polygon fill="none" stroke="black" points="211.5,-23.5 211.5,-59.5 265.5,-59.5 265.5,-23.5 211.5,-23.5"/>
<text text-anchor="start" x="219.5" y="-37.8" font-family="Times,serif" font-size="14.00">exit:</text>
</g>
<!-- Node0x2d095b0&#45;&gt;Node0x2d59100 -->
<g id="edge5" class="edge"><title>Node0x2d095b0&#45;&gt;Node0x2d59100</title>
<path fill="none" stroke="black" d="M52.2528,-257.477C45.1216,-222.399 34.9466,-144.256 72.5,-97 103.291,-58.2533 162.263,-46.7583 200.987,-43.5167"/>
<polygon fill="black" stroke="black" points="201.596,-46.9832 211.332,-42.8055 201.116,-39.9997 201.596,-46.9832"/>
</g>
<!-- Node0x2d9f2b0 -->
<g id="node7" class="node"><title>Node0x2d9f2b0</title>
<polygon fill="none" stroke="black" points="358,-202.5 358,-238.5 495,-238.5 495,-202.5 358,-202.5"/>
<text text-anchor="start" x="366" y="-216.8" font-family="Times,serif" font-size="14.00">while (v4 != g3):</text>
</g>
<!-- Node0x2d88b40&#45;&gt;Node0x2d9f2b0 -->
<g id="edge6" class="edge"><title>Node0x2d88b40&#45;&gt;Node0x2d9f2b0</title>
<path fill="none" stroke="black" d="M414.755,-314.287C417.198,-294.989 420.536,-268.614 423.03,-248.916"/>
<polygon fill="black" stroke="black" points="426.533,-249.107 424.317,-238.747 419.589,-248.228 426.533,-249.107"/>
</g>
<!-- Node0x2cf5f20 -->
<g id="node8" class="node"><title>Node0x2cf5f20</title>
<polygon fill="none" stroke="black" points="81.5,-97.5 81.5,-150.5 695.5,-150.5 695.5,-97.5 81.5,-97.5"/>
<text text-anchor="start" x="89.5" y="-135.3" font-family="Times,serif" font-size="14.00">0x8048828:</text>
<text text-anchor="start" x="89.5" y="-120.3" font-family="Times,serif" font-size="14.00"> IntToPtrCastExpr&lt;ptr&gt;(*(IntToPtrCastExpr&lt;ptr&gt;(((g2 &#45; 248) + (4 * v4)))))(a2, a3)</text>
<text text-anchor="start" x="89.5" y="-105.3" font-family="Times,serif" font-size="14.00"> v4 = (v4 + 1)</text>
</g>
<!-- Node0x2d9f2b0&#45;&gt;Node0x2cf5f20 -->
<g id="edge7" class="edge"><title>Node0x2d9f2b0&#45;&gt;Node0x2cf5f20</title>
<path fill="none" stroke="black" d="M370.068,-202.36C362.307,-197.626 355.349,-191.617 350.5,-184 345.304,-175.838 346.988,-167.062 351.785,-158.839"/>
<polygon fill="black" stroke="black" points="354.768,-160.685 357.751,-150.518 349.079,-156.605 354.768,-160.685"/>
<text text-anchor="middle" x="382" y="-172.8" font-family="Times,serif" font-size="14.00">v4 != g3</text>
</g>
<!-- Node0x2d094c0 -->
<g id="node9" class="node"><title>Node0x2d094c0</title>
<polygon fill="none" stroke="black" points="713,-105 713,-143 826,-143 826,-105 713,-105"/>
<text text-anchor="start" x="721" y="-127.8" font-family="Times,serif" font-size="14.00">0x8048845:</text>
<text text-anchor="start" x="721" y="-112.8" font-family="Times,serif" font-size="14.00"> return result</text>
</g>
<!-- Node0x2d9f2b0&#45;&gt;Node0x2d094c0 -->
<g id="edge8" class="edge"><title>Node0x2d9f2b0&#45;&gt;Node0x2d094c0</title>
<path fill="none" stroke="black" d="M495.218,-205.359C551.937,-193.023 634.227,-173.592 704.5,-151 708.714,-149.645 713.045,-148.15 717.374,-146.581"/>
<polygon fill="black" stroke="black" points="718.661,-149.836 726.802,-143.055 716.209,-143.28 718.661,-149.836"/>
<text text-anchor="middle" x="671" y="-172.8" font-family="Times,serif" font-size="14.00">v4 == g3</text>
</g>
<!-- Node0x2cf5f20&#45;&gt;Node0x2d9f2b0 -->
<g id="edge9" class="edge"><title>Node0x2cf5f20&#45;&gt;Node0x2d9f2b0</title>
<path fill="none" stroke="black" d="M404.745,-150.957C407.945,-156.754 411.062,-162.973 413.5,-169 416.487,-176.386 418.957,-184.661 420.912,-192.342"/>
<polygon fill="black" stroke="black" points="417.559,-193.376 423.259,-202.307 424.373,-191.771 417.559,-193.376"/>
</g>
<!-- Node0x2d094c0&#45;&gt;Node0x2d59100 -->
<g id="edge10" class="edge"><title>Node0x2d094c0&#45;&gt;Node0x2d59100</title>
<path fill="none" stroke="black" d="M729.133,-104.95C721.098,-101.902 712.629,-99.0623 704.5,-97 548.468,-57.4135 355.629,-46.4675 275.799,-43.5339"/>
<polygon fill="black" stroke="black" points="275.859,-40.034 265.744,-43.1854 275.616,-47.0298 275.859,-40.034"/>
</g>
</g>
</svg>
